<?xml version="1.0" encoding="utf-8"?>
<!-- Generator: Adobe Illustrator 26.0.1, SVG Export Plug-In . SVG Version: 6.00 Build 0)  -->
<svg version="1.1" id="Layer_1" xmlns="http://www.w3.org/2000/svg" xmlns:xlink="http://www.w3.org/1999/xlink" x="0px" y="0px"
	 viewBox="0 0 33 32" style="enable-background:new 0 0 33 32;" xml:space="preserve">
<style type="text/css">
	.st0{fill:#FFFFFF;}
</style>
<g>
	<path class="st0" d="M32.9,16.7c-0.3-0.2-0.5-0.3-0.8-0.5c-0.1-0.1-0.2-0.1-0.3,0c-0.6,0.6-1.2,0.9-2.1,0.8c-0.6-0.1-1-0.3-1.1-0.9
		c-0.1-0.2-0.1-0.4-0.1-0.7c0-0.2,0-0.2,0.2-0.2c1,0,2,0,3,0c0.1,0,0.2,0,0.3-0.1c0.2-0.4,0.5-0.7,0.7-1.1c0.1-0.1,0.1-0.2,0.1-0.3
		c0-0.3-0.1-0.5-0.2-0.8c-0.3-1-0.9-1.7-1.9-1.9c-0.5-0.1-0.9-0.1-1.4,0c-1,0.1-1.7,0.6-2,1.6c-0.1,0.4-0.3,0.7-0.3,1.1
		c0,0.6-0.2,1.1-0.6,1.6c-0.1,0.1-0.2,0.3-0.3,0.4c-0.2,0.3-0.4,0.5-0.6,0.7c-0.6,0.5-1.2,0.8-1.9,0.6c-0.6-0.1-1-0.4-1.1-0.9
		c-0.1-0.2-0.1-0.5-0.1-0.7c0-0.2,0-0.2,0.2-0.2c1,0,2,0,3,0c0.1,0,0.2,0,0.3-0.1c0.2-0.2,0.3-0.5,0.5-0.7c0.3-0.3,0.3-0.7,0.2-1.1
		c-0.2-0.8-0.5-1.5-1.2-1.9c-0.6-0.4-1.2-0.4-1.8-0.4C22,11,21.1,11.7,20.8,13c-0.3,1-0.3,2,0,3c0.1,0.7,0.4,1.3,1,1.7
		c0.5,0.4,1.1,0.5,1.7,0.6c1.2,0.1,2.2-0.2,3.1-1.1c0.2-0.2,0.4-0.5,0.6-0.7c0,0,0,0,0,0c0,0.1,0,0.1,0.1,0.2c0.3,0.9,1,1.4,1.9,1.6
		c0.4,0.1,0.9,0.1,1.3,0.1c1.1-0.1,2-0.6,2.6-1.4C33,16.8,33,16.7,32.9,16.7z M28.5,13.7c0-0.2,0.1-0.4,0.1-0.7
		c0.1-0.4,0.4-0.7,0.9-0.7c1.1-0.2,1.6,0.5,1.6,1.5c0,0.1-0.1,0.1-0.2,0.1c-0.4,0-0.8,0-1.1,0s-0.8,0-1.1,0
		C28.5,13.9,28.5,13.9,28.5,13.7z M22.3,13.7c0-0.2,0.1-0.4,0.1-0.7c0.1-0.4,0.4-0.7,0.9-0.7c0.2,0,0.4,0,0.6,0
		c0.5,0.1,0.8,0.4,0.9,0.8c0.2,0.7,0.2,0.7-0.5,0.7h-0.7c-0.4,0-0.8,0-1.1,0C22.3,13.9,22.3,13.9,22.3,13.7z"/>
	<path class="st0" d="M12,16.2c-0.3,1.4-1.3,2.1-2.7,2.1c-0.3,0-0.7,0-1-0.1c-0.7-0.1-1.1-0.6-1.6-1.1c-0.1-0.1,0-0.1,0-0.2
		c0.3-0.3,0.5-0.7,0.8-1c0.1-0.1,0.1-0.1,0.2,0c0.2,0.2,0.4,0.4,0.6,0.6C9,17.3,10.2,17,10.4,16c0.2-0.9,0.2-1.9,0-2.8
		c-0.2-0.8-1.2-1.2-2-0.7c-0.4,0.2-0.5,0.6-0.6,1.1c-0.1,0.4-0.1,0.7-0.1,1.1c0,0.1,0,0.2-0.1,0.3c-0.5,0.7-1,1.4-1.6,2.1
		c-0.7,0.9-1.7,1.3-2.9,1.4c-0.4,0-0.8,0-1.2-0.1c-0.9-0.3-1.5-0.9-1.8-1.8C0,15.3,0,14.1,0.3,13c0.3-1.3,1.2-2,2.5-2.1
		c0.6,0,1.2,0,1.7,0.3c0.7,0.4,1.1,1,1.3,1.7c0,0.1,0,0.1-0.1,0.2c-0.3,0.1-0.7,0.3-1,0.4c-0.1,0.1-0.1,0-0.2-0.1
		c-0.1-0.2-0.2-0.4-0.3-0.6c-0.3-0.5-0.8-0.6-1.4-0.5c-0.5,0.1-0.8,0.4-0.9,0.9c-0.1,0.5-0.1,1-0.1,1.5c0,0.3,0,0.7,0,1.1
		c0.1,0.7,0.5,1,1.2,1.1c1,0.1,1.7-0.3,2.3-1c0.3-0.4,0.6-0.9,0.9-1.3c0.1-0.2,0.1-0.4,0.1-0.6c0-0.4,0.1-0.8,0.2-1.2
		c0.4-1.2,1.2-1.8,2.4-1.9c0.4,0,0.8,0,1.3,0.1c1,0.3,1.6,0.9,1.9,1.9C12.3,14,12.3,15.1,12,16.2z"/>
	<path class="st0" d="M21.2,8.4c-0.1,0.3-0.2,0.7-0.2,1c0,0.1-0.1,0.1-0.2,0.1c-0.4-0.1-0.7-0.2-1.1-0.2c-0.5,0.1-0.8,0.3-0.9,0.9
		c0,0.3,0,0.5,0,0.8c0,0.1,0,0.2,0.2,0.2c0.5,0,1.1,0,1.6,0c0.1,0,0.2,0,0.1,0.2c-0.1,0.3-0.1,0.7-0.2,1c0,0.1-0.1,0.2-0.2,0.2
		c-0.4,0-0.9,0-1.3,0c-0.2,0-0.2,0-0.2,0.2c0,1.8,0,3.5,0,5.3c0,0.2,0,0.3-0.2,0.2c-0.4,0-0.8,0-1.1,0c-0.2,0-0.2,0-0.2-0.2
		c0-1.7,0-3.5,0-5.2c0-0.3,0-0.3-0.3-0.3c-0.7,0-1.5,0-2.2,0c-0.2,0-0.2,0.1-0.2,0.2c0,1.8,0,3.5,0,5.3c0,0.2,0,0.2-0.2,0.2
		c-0.4,0-0.8,0-1.2,0c-0.2,0-0.2-0.1-0.2-0.2c0-1.3,0-2.6,0-3.9c0-1.2,0-2.4,0-3.7c0-0.3,0-0.6,0.1-1c0.2-0.9,0.8-1.3,1.7-1.5
		c0.6-0.1,1.2,0,1.8,0.1c0.1,0,0.1,0.1,0.1,0.2c-0.1,0.3-0.2,0.7-0.2,1c0,0.1,0,0.2-0.2,0.1c-0.3-0.1-0.6-0.1-0.9-0.1
		c-0.4,0-0.6,0.2-0.7,0.6c-0.1,0.4,0,0.8-0.1,1.1c0,0.1,0,0.1,0.1,0.1c0.8,0,1.6,0,2.5,0c0.1,0,0.1-0.1,0.1-0.2c0-0.4,0-0.9,0.1-1.3
		c0.2-1,0.9-1.6,1.9-1.7c0.7-0.1,1.3,0.1,1.9,0.2C21.2,8.2,21.2,8.3,21.2,8.4z"/>
	<path class="st0" d="M21.3,24.7c-0.3,0.2-0.5,0.2-0.8,0.2c-0.7,0-1.3-0.3-1.7-0.9c-0.3-0.5-0.6-1-0.9-1.4c-0.1-0.2-0.2-0.4-0.4-0.5
		c0.1-0.1,0.1,0,0.2-0.1c0.5,0,0.7-0.3,0.7-0.9c0-0.4-0.3-0.7-0.7-0.7c-0.3,0-0.3,0-0.3,0.3v2.5c0,0.4,0,0.4,0.4,0.5h-1.5
		c0.3-0.1,0.4-0.3,0.4-0.6c0-0.8,0-1.6,0-2.4c0-0.3,0-0.4-0.3-0.5c0,0,0,0,0,0c0.7,0,1.3-0.1,2,0c0.8,0.1,1.2,0.9,0.7,1.6
		c-0.2,0.2-0.4,0.3-0.7,0.4c0.6,0.5,0.9,1.1,1.4,1.6c0.4,0.5,0.9,0.8,1.5,0.8C21.2,24.6,21.3,24.7,21.3,24.7z"/>
	<path class="st0" d="M24,20.6c-0.4-0.3-0.9-0.4-1.5-0.4c-1.5,0.1-2.3,1.6-1.5,2.9c0.4,0.6,1,0.9,1.7,0.8c0.1,0,0.2,0,0.3,0
		c0.7-0.1,1.4-0.5,1.6-1.2C24.8,21.9,24.6,21,24,20.6z M23.6,23.1c-0.2,0.4-0.5,0.6-0.9,0.6c-0.4,0-0.7-0.2-0.9-0.6
		c0,0,0-0.1-0.1-0.1c0,0,0,0,0,0c0-0.1,0-0.1-0.1-0.2c0,0,0,0,0,0v0c0,0,0,0,0-0.1c0,0,0-0.1,0-0.1c0,0,0,0,0-0.1c0,0,0,0,0-0.1
		c0-0.1,0-0.2,0-0.3c0-0.1,0-0.2,0-0.3c0,0,0,0,0-0.1c0-0.2,0-0.3,0.1-0.5c0,0,0,0,0,0c0,0,0-0.1,0-0.1c0,0,0,0,0,0c0,0,0,0,0,0
		c0,0,0,0,0,0c0.2-0.4,0.5-0.6,0.9-0.6c0.4,0,0.7,0.2,0.9,0.6C23.9,21.7,23.9,22.4,23.6,23.1z"/>
	<path class="st0" d="M14.9,22.8c-0.1,0.3-0.1,0.6-0.2,1c0,0.1-0.1,0.1-0.1,0.1c-0.8,0-1.6,0-2.4,0c0,0,0,0-0.1,0
		c0.4,0,0.4-0.3,0.4-0.6c0-0.8,0-1.6,0-2.4c0-0.3-0.1-0.4-0.3-0.5c0.4,0,0.8,0,1.2,0c0.4,0,0.8,0,1.2-0.1v0.9
		c-0.1-0.1-0.1-0.1-0.1-0.2c-0.1-0.2-0.2-0.4-0.4-0.4c-0.2,0-0.5,0-0.7,0c-0.1,0-0.1,0-0.1,0.1c0,0.4,0,0.8,0,1.2
		c0,0.1,0,0.1,0.1,0.1c0.2,0,0.3,0,0.5,0c0.2,0,0.3-0.1,0.4-0.5v1.2c-0.1-0.4-0.2-0.5-0.7-0.5c-0.4,0-0.4,0-0.4,0.4
		c0,0.3,0,0.6,0,0.9c0,0.1,0,0.1,0.1,0.1c0.2,0,0.4,0,0.6,0c0.3,0,0.6-0.2,0.7-0.5C14.8,23,14.8,22.9,14.9,22.8z"/>
	<path class="st0" d="M10.8,22.8c-0.1,0.3-0.1,0.6-0.2,1c0,0.1-0.1,0-0.1,0c-0.8,0-1.6,0-2.4,0c-0.2,0-0.1-0.1-0.1-0.2
		c0.4-0.7,0.7-1.4,1.1-2.1c0.2-0.3,0.3-0.6,0.5-1c0.1-0.1,0-0.2-0.1-0.2c-0.3,0-0.6,0-0.9,0c-0.4,0-0.5,0.1-0.6,0.5c0,0,0,0.1,0,0.1
		v-0.8c0.9,0.1,1.7,0.1,2.6,0c-0.6,1.1-1.2,2.2-1.8,3.4c0.4,0,0.8,0,1.2,0c0.3,0,0.5-0.3,0.6-0.5C10.7,23,10.8,22.9,10.8,22.8z"/>
	<path class="st0" d="M21.6,22.4c0-0.1,0-0.2,0-0.3c0-0.1,0-0.2,0-0.3c0,0.1,0,0.2,0,0.3C21.5,22.2,21.5,22.3,21.6,22.4z"/>
</g>
</svg>
