<?xml version="1.0" encoding="utf-8"?>
<!-- Generator: Adobe Illustrator 26.0.1, SVG Export Plug-In . SVG Version: 6.00 Build 0)  -->
<svg version="1.1" id="Layer_1" xmlns="http://www.w3.org/2000/svg" xmlns:xlink="http://www.w3.org/1999/xlink" x="0px" y="0px"
	 viewBox="0 0 129 43" style="enable-background:new 0 0 129 43;" xml:space="preserve">
<style type="text/css">
	.st0{fill:#FFFFFF;}
	.st1{fill:#5DB309;}
	.st2{fill:#F7F7F7;}
</style>
<path d="M128.9,9.5v23c0,0.4,0,0.8,0,1.2v1c0,0.7-0.1,1.4-0.2,2c-0.1,0.6-0.3,1.3-0.6,1.8c-0.3,0.6-0.7,1.1-1.1,1.5
	c-0.5,0.5-1,0.8-1.5,1.1s-1.2,0.5-1.8,0.6c-0.7,0.1-1.4,0.2-2,0.2c-0.3,0-0.7,0-1,0H8.3c-0.3,0-0.7,0-1,0c-0.7,0-1.4-0.1-2-0.2
	c-0.6-0.1-1.2-0.3-1.8-0.6c-0.6-0.3-1.1-0.7-1.5-1.1c-0.5-0.4-0.8-1-1.1-1.5c-0.3-0.6-0.5-1.2-0.6-1.8C0.1,36.1,0,35.4,0,34.7
	c0-0.2,0-1,0-1V8.3c0,0,0-0.8,0-1C0,6.7,0.1,6,0.2,5.3C0.3,4.6,0.5,4,0.8,3.5c0.3-0.6,0.7-1.1,1.1-1.5c0.4-0.5,1-0.8,1.5-1.1
	C4,0.5,4.6,0.3,5.2,0.2C5.9,0.1,6.6,0,7.3,0l1,0h112.3l1,0c0.7,0,1.4,0.1,2,0.2c0.6,0.1,1.2,0.3,1.8,0.6c1.1,0.6,2,1.5,2.6,2.7
	c0.3,0.6,0.5,1.2,0.6,1.8c0.1,0.7,0.2,1.4,0.2,2.1v1C128.9,8.7,128.9,9.1,128.9,9.5z"/>
<path class="st0" d="M27,24.2c-0.6-0.9-0.9-1.9-0.9-2.9c0-0.9,0.2-1.8,0.7-2.6s1.1-1.5,1.9-2c-0.5-0.7-1.1-1.3-1.9-1.7
	c-0.8-0.4-1.6-0.6-2.5-0.7c-1.8-0.2-3.6,1.1-4.5,1.1c-1,0-2.4-1.1-3.9-1.1c-1,0-2,0.3-2.8,0.9c-0.9,0.5-1.6,1.3-2,2.1
	c-2.1,3.7-0.5,9.1,1.5,12.1c1,1.5,2.2,3.1,3.7,3c1.5-0.1,2.1-1,3.9-1c1.8,0,2.3,1,3.9,0.9c1.6,0,2.6-1.5,3.6-2.9
	c0.7-1,1.3-2.2,1.7-3.4C28.4,25.8,27.5,25.1,27,24.2z M20.8,10.5c-0.4,0.5-0.8,1.1-1,1.7c-0.2,0.6-0.3,1.3-0.3,2
	c0.7,0,1.3-0.1,2-0.4c0.6-0.3,1.2-0.7,1.6-1.2c0.9-1.1,1.3-2.5,1.2-3.8C23,8.8,21.7,9.4,20.8,10.5z M46.4,26l-0.5-1.3l-1.8-4.9
	l-0.3-0.9h-2.3l-0.9,2.5l-1.3,3.8v0L39,26.1l-2.3,6.5h2.2l1.2-3.7h5.2l1.2,3.7h2.2L46.4,26z M40.6,27.2l0.4-1.1l1.2-3.5l0.5-1.4h0.1
	l1.2,3.5v0l0.5,1.5l0.3,0.9H40.6z M59.2,26.1L59.2,26.1c-0.1-0.6-0.3-1.1-0.5-1.5c-0.5-0.9-1.1-1.5-2-1.8c-0.4-0.2-0.9-0.3-1.5-0.3
	c-0.5,0-1,0.1-1.4,0.3c-0.1,0-0.2,0.1-0.4,0.2c-0.5,0.3-0.9,0.7-1.3,1.2c0,0,0,0.1-0.1,0.1h0v-1.7h-2v13.2h2v-4.9h0.1
	c0.3,0.6,0.8,1,1.3,1.3c0.5,0.3,1.2,0.5,1.8,0.4c2.5,0,4.1-2,4.1-5.1C59.3,27,59.3,26.5,59.2,26.1z M54.6,30.9
	c-1.6,0-2.6-1.3-2.6-3.3c0-0.6,0.1-1.1,0.3-1.6c0.2-0.5,0.4-0.9,0.8-1.2c0.4-0.3,0.9-0.5,1.5-0.5c0.3,0,0.6,0,0.9,0.2
	c0.5,0.2,0.8,0.5,1.1,0.9c0.4,0.6,0.6,1.3,0.6,2.3C57.2,29.6,56.2,30.9,54.6,30.9z M70.1,26.1c-0.1-0.7-0.4-1.3-0.7-1.8
	c-0.3-0.4-0.6-0.8-1-1c-0.6-0.5-1.3-0.7-2.1-0.8c-0.1,0-0.2,0-0.2,0c-0.6,0-1.3,0.1-1.8,0.5c-0.5,0.3-1,0.8-1.3,1.3h0v-1.7h-2v13.2
	h2v-4.9h0c0.3,0.6,0.8,1,1.3,1.3c0.5,0.3,1.2,0.5,1.8,0.4c2.5,0,4.1-2,4.1-5.1C70.2,27.1,70.2,26.6,70.1,26.1z M65.5,30.9
	c-1.5,0-2.6-1.3-2.6-3.3c0-2,1-3.3,2.6-3.3c0.3,0,0.5,0,0.8,0.1c0.8,0.2,1.3,0.9,1.6,1.8c0.1,0.4,0.2,0.9,0.2,1.5
	C68.1,29.6,67.1,30.9,65.5,30.9z M83.3,25.3c-0.4-0.2-0.9-0.3-1.5-0.5l-1.5-0.4c-0.1,0-0.3-0.1-0.4-0.1c0,0,0,0,0,0
	c-1.5-0.4-2.1-1-2.1-1.9c0-1.2,1.1-2,2.7-2h0.1c1.3,0,2.3,0.5,2.7,1.4c0.1,0.2,0.2,0.5,0.2,0.8h2.1c0-1-0.4-1.9-1.1-2.6c0,0,0,0,0,0
	c-0.1-0.1-0.2-0.2-0.3-0.2c0,0,0,0,0,0c-0.2-0.2-0.5-0.4-0.8-0.5c-0.6-0.3-1.3-0.5-2-0.5c-0.2,0-0.4,0-0.5,0h-0.1
	c-2.9,0-4.9,1.6-4.9,4c0,1.8,1,3,3.3,3.6c0.1,0,0.2,0.1,0.4,0.1l1.8,0.4c1.8,0.4,2.5,1.1,2.5,2.1c0,1.2-1.2,2.1-2.9,2.1
	c-1.8,0-3.1-0.9-3.2-2.2h-2.1c0.1,2.5,2.2,4,5.2,4c3.2,0,5.2-1.6,5.2-4.2C85.8,27,85,26,83.3,25.3z M90.1,22.6v-2.4h-2v2.4h-1.4v1.6
	h1.4v5.7c0,1.9,0.8,2.7,2.8,2.7c0.4,0,0.8,0,1.1-0.1v-1.6c-0.2,0-0.4,0.1-0.7,0.1c-0.8,0-1.2-0.4-1.2-1.2v-5.5H92v-1.6H90.1z
	 M97.8,22.5c0,0-0.1,0-0.1,0c-1,0-1.9,0.3-2.6,0.8c-0.5,0.3-0.9,0.8-1.2,1.3c-0.3,0.5-0.5,1-0.6,1.6c-0.1,0.4-0.1,0.9-0.1,1.4
	c0,3.1,1.8,5.1,4.7,5.1c2.9,0,4.7-2,4.7-5.1C102.5,24.5,100.7,22.5,97.8,22.5z M97.8,31c-1.6,0-2.6-1.3-2.6-3.4c0-0.5,0.1-1,0.2-1.4
	c0.3-1.3,1.2-2.1,2.5-2.1c0.1,0,0.2,0,0.2,0c1.5,0.1,2.4,1.4,2.4,3.4C100.4,29.7,99.4,31,97.8,31z M108.5,22.5
	c-0.6,0-1.1,0.2-1.5,0.5c-0.4,0.3-0.7,0.8-0.9,1.3h0v-1.7h-1.9v10h2v-5.9c0-0.3,0-0.6,0.1-0.9c0.1-0.3,0.2-0.5,0.4-0.8
	c0.2-0.2,0.4-0.4,0.7-0.5c0.3-0.1,0.6-0.2,0.9-0.2c0.3,0,0.6,0,0.9,0.1v-1.9C109,22.5,108.8,22.5,108.5,22.5z M118.7,28.1v-0.7
	c0-3-1.7-4.9-4.5-4.9c-2.8,0-4.6,2-4.6,5.1c0,3.1,1.8,5,4.7,5c2.2,0,4-1.2,4.3-3h-1.9c-0.2,0.5-0.5,0.8-0.9,1.1
	c-0.4,0.2-0.9,0.4-1.4,0.3c-0.4,0-0.7,0-1.1-0.2c-0.3-0.1-0.6-0.3-0.9-0.6c-0.2-0.3-0.4-0.6-0.6-0.9c-0.1-0.3-0.2-0.7-0.1-1.1v-0.1
	H118.7z M111.9,25.7c0.1-0.3,0.3-0.6,0.6-0.8c0.2-0.2,0.5-0.4,0.8-0.5c0.3-0.1,0.6-0.2,1-0.2c0.3,0,0.7,0.1,1,0.2
	c0.3,0.1,0.6,0.3,0.8,0.5s0.4,0.5,0.5,0.8c0.1,0.3,0.2,0.6,0.1,1h-5C111.7,26.3,111.8,26,111.9,25.7z M43.3,10.6
	c-0.1-0.4-0.4-0.8-0.6-1.1c-0.3-0.3-0.7-0.6-1-0.7c-0.4-0.2-0.8-0.2-1.3-0.2H38v6.5h2.3c2,0,3.1-1.2,3.1-3.3
	C43.5,11.5,43.5,11,43.3,10.6z M42.3,12.8c-0.1,0.3-0.2,0.6-0.4,0.8c-0.2,0.2-0.5,0.4-0.8,0.5c-0.3,0.1-0.6,0.2-0.9,0.2H39V9.6h1.2
	c0.3,0,0.6,0,0.9,0.2c0.3,0.1,0.5,0.3,0.7,0.5c0.2,0.2,0.4,0.5,0.4,0.8c0.1,0.3,0.1,0.6,0.1,0.9C42.5,12.2,42.4,12.5,42.3,12.8z
	 M49.1,11.8c-0.1-0.3-0.3-0.6-0.5-0.8c-0.2-0.2-0.5-0.4-0.8-0.6s-0.6-0.2-0.9-0.2c-0.3,0-0.6,0.1-1,0.2c-0.3,0.1-0.6,0.3-0.8,0.6
	c-0.2,0.2-0.4,0.5-0.5,0.8c-0.1,0.3-0.1,0.6-0.1,1c0,0.3,0,0.7,0.1,1c0.1,0.3,0.3,0.6,0.5,0.8c0.2,0.2,0.5,0.4,0.8,0.6
	c0.3,0.1,0.6,0.2,1,0.2c0.3,0,0.6-0.1,0.9-0.2c0.3-0.1,0.6-0.3,0.8-0.6c0.2-0.2,0.4-0.5,0.5-0.8s0.1-0.6,0.1-1
	C49.3,12.4,49.2,12.1,49.1,11.8z M46.9,14.4c-0.8,0-1.3-0.6-1.3-1.7c0-1.1,0.5-1.7,1.3-1.7c0.8,0,1.3,0.6,1.3,1.7
	C48.2,13.8,47.8,14.4,46.9,14.4z M55.8,10.2L54.9,14h-0.1l-1-3.8h-0.9l-1,3.8h-0.1l-0.9-3.8h-1l1.4,5h1l1-3.6h0.1l1,3.6h1l1.4-5
	H55.8z M62,11.3c-0.1-0.2-0.2-0.5-0.4-0.6c-0.2-0.2-0.4-0.3-0.6-0.4c-0.2-0.1-0.5-0.1-0.7-0.1c-0.3,0-0.6,0-0.9,0.2
	c-0.3,0.2-0.5,0.4-0.6,0.7h-0.1v-0.8h-0.9v5h1v-2.9c0-0.2,0-0.3,0-0.5c0.1-0.2,0.1-0.3,0.2-0.4c0.1-0.1,0.2-0.2,0.4-0.3
	c0.1-0.1,0.3-0.1,0.5-0.1c0.7,0,1.1,0.4,1.1,1.2v3h1V12C62.1,11.8,62.1,11.5,62,11.3z M63.6,8.3v6.9h1V8.3H63.6z M70.5,11.8
	c-0.1-0.3-0.3-0.6-0.5-0.8c-0.2-0.2-0.5-0.4-0.8-0.6c-0.3-0.1-0.6-0.2-0.9-0.2c-0.3,0-0.7,0.1-1,0.2c-0.3,0.1-0.6,0.3-0.8,0.6
	c-0.2,0.2-0.4,0.5-0.5,0.8c-0.1,0.3-0.1,0.6-0.1,1c0,0.3,0,0.7,0.1,1c0.1,0.3,0.3,0.6,0.5,0.8c0.2,0.2,0.5,0.4,0.8,0.6
	c0.3,0.1,0.6,0.2,1,0.2c0.3,0,0.6-0.1,0.9-0.2c0.3-0.1,0.6-0.3,0.8-0.6c0.2-0.2,0.4-0.5,0.5-0.8c0.1-0.3,0.1-0.6,0.1-1
	C70.6,12.4,70.6,12.1,70.5,11.8z M68.3,14.4c-0.8,0-1.3-0.6-1.3-1.7c0-1.1,0.5-1.7,1.3-1.7c0.8,0,1.3,0.6,1.3,1.7
	C69.6,13.8,69.1,14.4,68.3,14.4z M73.8,10.2c-1.1,0-1.9,0.5-2,1.4h0.9c0.1-0.3,0.5-0.5,1-0.5c0.7,0,1,0.3,1,0.8v0.4l-1.3,0.1
	c-1.2,0.1-1.8,0.6-1.8,1.5c0,0.2,0,0.4,0.1,0.6c0.1,0.2,0.2,0.4,0.4,0.5c0.2,0.1,0.3,0.2,0.5,0.3c0.2,0.1,0.4,0.1,0.6,0.1
	c0.3,0,0.6-0.1,0.8-0.2c0.2-0.1,0.5-0.3,0.6-0.6h0.1v0.7h0.9v-3.4C75.7,10.8,75,10.2,73.8,10.2z M74.8,13.4c0,0.2-0.1,0.3-0.1,0.5
	c-0.1,0.1-0.2,0.3-0.3,0.4c-0.1,0.1-0.3,0.2-0.4,0.2c-0.2,0-0.3,0.1-0.5,0c-0.5,0-0.9-0.3-0.9-0.7s0.3-0.7,1-0.7l1.2-0.1V13.4z
	 M80.6,8.3V11h-0.1c-0.1-0.3-0.4-0.5-0.6-0.7c-0.3-0.2-0.6-0.2-0.9-0.2c-1.2,0-2,1-2,2.6c0,1.6,0.8,2.6,2,2.6c0.3,0,0.6-0.1,0.9-0.2
	c0.3-0.2,0.5-0.4,0.7-0.7h0.1v0.8h0.9V8.3H80.6z M79.3,14.4c-0.8,0-1.3-0.6-1.3-1.7c0-1,0.5-1.7,1.3-1.7c0.8,0,1.3,0.7,1.3,1.7
	C80.7,13.8,80.2,14.4,79.3,14.4z M90.2,11.8c-0.1-0.3-0.3-0.6-0.5-0.8c-0.2-0.2-0.5-0.4-0.8-0.6c-0.3-0.1-0.6-0.2-0.9-0.2
	c-0.3,0-0.6,0.1-0.9,0.2s-0.6,0.3-0.8,0.6c-0.2,0.2-0.4,0.5-0.5,0.8c-0.1,0.3-0.1,0.6-0.1,1c0,0.3,0,0.7,0.1,1
	c0.1,0.3,0.3,0.6,0.5,0.8c0.2,0.2,0.5,0.4,0.8,0.6c0.3,0.1,0.6,0.2,0.9,0.2c0.3,0,0.6-0.1,1-0.2c0.3-0.1,0.6-0.3,0.8-0.6
	c0.2-0.2,0.4-0.5,0.5-0.8c0.1-0.3,0.1-0.6,0.1-1C90.3,12.4,90.3,12.1,90.2,11.8z M88,14.4c-0.8,0-1.3-0.6-1.3-1.7
	c0-1.1,0.5-1.7,1.3-1.7c0.8,0,1.3,0.6,1.3,1.7C89.3,13.8,88.8,14.4,88,14.4z M95.7,11.3c-0.1-0.2-0.2-0.5-0.4-0.6
	c-0.2-0.2-0.4-0.3-0.6-0.4c-0.2-0.1-0.5-0.1-0.7-0.1c-0.3,0-0.6,0-0.9,0.2c-0.3,0.2-0.5,0.4-0.6,0.7h-0.1v-0.8h-0.9v5h1v-2.9
	c0-0.2,0-0.3,0-0.5c0.1-0.2,0.1-0.3,0.2-0.4c0.1-0.1,0.2-0.2,0.4-0.3c0.2-0.1,0.3-0.1,0.5-0.1c0.7,0,1.1,0.4,1.1,1.2v3h1V12
	C95.8,11.8,95.8,11.5,95.7,11.3z M102.3,11.1v-0.8h-1.1V9h-1v1.3h-0.8v0.8h0.8v2.8c0,1,0.4,1.3,1.5,1.3c0.2,0,0.3,0,0.5,0v-0.8
	c-0.1,0-0.2,0-0.4,0c-0.5,0-0.7-0.2-0.7-0.7v-2.5H102.3z M107.8,11.3c-0.1-0.2-0.2-0.4-0.4-0.6c-0.2-0.2-0.4-0.3-0.6-0.4
	c-0.2-0.1-0.5-0.1-0.7-0.1c-0.3,0-0.6,0-0.9,0.2c-0.3,0.2-0.5,0.4-0.6,0.7h-0.1V8.3h-1v6.9h1v-2.9c0-0.2,0-0.3,0.1-0.5
	s0.2-0.3,0.3-0.4c0.1-0.1,0.3-0.2,0.4-0.3c0.2-0.1,0.3-0.1,0.5-0.1c0.7,0,1.1,0.4,1.1,1.2v3h1V12C107.9,11.8,107.9,11.5,107.8,11.3z
	 M113.6,13v-0.3c0-1.5-0.8-2.5-2.2-2.5c-0.3,0-0.6,0.1-0.9,0.2c-0.3,0.1-0.6,0.3-0.8,0.6c-0.2,0.2-0.4,0.5-0.5,0.9
	c-0.1,0.3-0.1,0.6-0.1,1c0,0.3,0,0.7,0.1,1c0.1,0.3,0.3,0.6,0.5,0.8c0.2,0.2,0.5,0.4,0.8,0.6c0.3,0.1,0.6,0.2,0.9,0.2
	c0.5,0.1,0.9-0.1,1.3-0.3c0.4-0.3,0.7-0.7,0.8-1.1h-0.9c-0.1,0.2-0.3,0.4-0.5,0.5c-0.2,0.1-0.4,0.1-0.7,0.1c-0.2,0-0.4,0-0.5-0.1
	c-0.2-0.1-0.3-0.2-0.4-0.3s-0.2-0.3-0.3-0.5c-0.1-0.2-0.1-0.4-0.1-0.5v0H113.6z M110.2,11.8c0.1-0.2,0.1-0.3,0.3-0.4
	s0.3-0.2,0.4-0.3c0.2-0.1,0.3-0.1,0.5-0.1c0.2,0,0.3,0,0.5,0.1c0.2,0.1,0.3,0.2,0.4,0.3c0.1,0.1,0.2,0.3,0.3,0.4
	c0.1,0.2,0.1,0.3,0.1,0.5h-2.5C110.1,12.1,110.1,11.9,110.2,11.8z"/>
<g>
	<path d="M128.8,8.3v-1c0-0.7-0.1-1.4-0.2-2.1c-0.1-0.6-0.3-1.2-0.6-1.8c-0.6-1.1-1.5-2.1-2.6-2.7c-0.6-0.3-1.2-0.5-1.8-0.6
		c-0.7-0.1-1.3-0.2-2-0.2l-1,0H8.3l-1,0c-0.7,0-1.4,0.1-2,0.2C4.6,0.3,4,0.5,3.4,0.8C2.9,1.1,2.3,1.5,1.9,1.9
		c-0.5,0.4-0.8,1-1.1,1.5C0.5,4,0.3,4.6,0.2,5.3C0.1,6,0,6.7,0,7.3c0,0.2,0,1,0,1v25.4c0,0,0,0.8,0,1c0,0.7,0.1,1.4,0.2,2.1
		c0.1,0.6,0.3,1.2,0.6,1.8c0.3,0.6,0.7,1.1,1.1,1.5c0.4,0.5,1,0.8,1.5,1.1c0.6,0.3,1.2,0.5,1.8,0.6C5.9,42,6.6,42,7.3,42
		c0.3,0,0.7,0,1,0h112.3c0.3,0,0.6,0,1,0c0.7,0,1.4-0.1,2-0.2c0.6-0.1,1.2-0.3,1.8-0.6s1.1-0.7,1.5-1.1c0.4-0.5,0.8-1,1.1-1.5
		c0.3-0.6,0.5-1.2,0.6-1.8c0.1-0.7,0.2-1.4,0.2-2v-1c0-0.4,0-0.8,0-1.2v-23C128.9,9.1,128.9,8.7,128.8,8.3z M31.8,24.9
		c-0.6-0.8-0.9-1.6-1-2.5c0-2.1,0-4.2,0-6.3c0-0.3,0-0.5,0.4-0.5c1.3,0,1.3,0,1.3,1.2c0,1.7,0,3.5,0,5.2c0,1.7,1.1,2.8,2.6,2.8
		c1,0,1.8-0.5,2.2-1.5c0.2-0.5,0.4-1.1,0.4-1.7c0-1.9,0-3.8,0-5.7c0-0.3,0-0.4,0.4-0.4c1.2,0,1.2,0,1.2,1.2v4.1c0,1.4,0,2.8,0,4.3v0
		c0,0.1,0,0.2,0,0.3c0,0.1,0,0.2,0,0.3c0,0,0,0.1,0,0.1c0,0.1-0.1,0.1-0.1,0.1c0,0-0.1,0-0.2,0c-0.1,0-0.2,0-0.3,0
		c-0.1,0-0.1,0-0.2,0c-0.5,0.1-0.8,0-0.7-0.6c0-0.1,0-0.2-0.1-0.2c-0.1-0.1-0.2,0-0.3,0.1C35.9,26.8,33.1,26.5,31.8,24.9z
		 M48.2,24.6c-0.5,0.7-1.1,1.1-1.8,1.4c-0.3,0.1-0.7,0.2-1.1,0.2c-0.3,0-0.6,0-0.9,0c-0.8-0.1-1.5-0.4-2.2-1c-0.1,0.8-0.1,0.8-1,0.9
		c-0.1,0-0.2,0-0.3,0c-0.3,0-0.3-0.2-0.3-0.6c0-1.4,0-2.7,0-4.1c0-1.8,0-3.5,0-5.3c0-0.4,0.1-0.5,0.5-0.5c1,0,1,0,1,1v2.7
		c0.2-0.1,0.5-0.3,0.7-0.4c2-0.9,3.8-0.7,5,0.7C49.2,21,49.4,23.1,48.2,24.6z M51.7,18.9c2.1-1.3,5.5-0.4,5.9,2.8
		c0.1,1.1,0.1,1.1-1,1.1h-5.2c0.1,0.5,0.3,0.9,0.6,1.2c0,0,0.1,0.1,0.1,0.1c0.3,0.3,0.6,0.5,1,0.6c0.7,0.2,1.6,0.2,2.4-0.4
		c0.1-0.1,0.2-0.1,0.3-0.2c0.4-0.3,0.5-0.3,0.9,0c0.7,0.6,0.7,0.5,0,1.1c0,0-0.1,0-0.1,0.1c-1.2,1-2.9,1.2-4.3,0.6
		c-0.7-0.3-1.3-0.7-1.7-1.3c-0.3-0.4-0.5-0.8-0.6-1.2C49.5,21.8,50.1,19.9,51.7,18.9z M60.2,25.7c0,0.4-0.1,0.4-0.5,0.4
		c-0.2,0-0.4,0-0.6,0c0,0,0,0-0.1,0c-0.1,0-0.2,0-0.2,0c0,0,0,0,0,0c0,0-0.1,0-0.1-0.1c0,0,0,0,0-0.1c0,0,0,0,0,0c0,0,0,0,0-0.1
		c0-0.1,0-0.4,0-0.7v-0.5c0-1.9,0-3.7,0-5.6c0-0.5,0.1-0.6,0.6-0.5c0.1,0,0.1,0,0.2,0c0.7,0,0.7,0,0.8,0.8c0.6-0.8,1.3-0.9,2.1-0.9
		c0.2,0,0.4,0.1,0.3,0.3c0,0,0,0.1,0,0.1c0,0.9,0,0.9-0.9,1c-1,0.1-1.5,0.8-1.5,2C60.2,23.1,60.2,24.4,60.2,25.7z M72.5,26.1h-2.5
		c-0.7,0-1.5,0-2.2,0c-0.4,0-0.8,0-1.2,0s-0.5-0.1-0.5-0.5c0-0.4,0-0.8,0-1.3v-3.5c0-1.6,0-3.2,0-4.8c0-0.4,0.1-0.5,0.5-0.5
		c2.2,0,4.5,0,6.7,0c0.3,0,0.4,0.1,0.4,0.4c0,1.4,0,1.4-1.4,1.4c-1.2,0-2.4,0-3.7,0c-0.4,0-0.5,0.1-0.5,0.5c0,0.5,0,1.1,0,1.6
		c0,0.4,0.1,0.5,0.5,0.5c1.4,0,2.9,0,4.3,0c0.4,0,0.5,0.1,0.5,0.5c0,1.2,0,1.2-1.2,1.2c-1.2,0-2.5,0-3.7,0c-0.3,0-0.4,0.1-0.4,0.4
		c0,0.4,0,0.8,0,1.1c0,0.2,0,0.3,0,0.5c0,0.4,0.1,0.5,0.5,0.5h0.5c1.3,0,2.7,0,4,0c0.4,0,0.5,0.1,0.5,0.5
		C73.9,26.1,73.9,26.1,72.5,26.1z M75.5,19.7c1.2-1.5,3.1-1.9,5.2-1c0.2,0.1,0.4,0.2,0.6,0.2c0-0.1,0-0.1,0-0.2
		c0-0.3,0.2-0.4,0.5-0.3c0.5,0,1-0.2,1.3,0.1c0.2,0.2,0.2,0.5,0.2,0.8c0,0.2,0,0.4,0,0.5v2.1c0,1.1,0,2.3,0,3.4v0.3
		c0,0.4-0.1,0.5-0.5,0.5c-0.3,0-0.6,0-0.8,0c-0.4,0-0.9,0.1-0.7-0.6c-0.8,0.4-1.6,0.7-2.3,0.8c-1.3,0.1-2.5-0.4-3.5-1.4
		C74.3,23.4,74.3,21.2,75.5,19.7z M85.7,24.2c0-0.6,0-1.2,0-1.8c0-0.6,0-1.2,0-1.9c0-0.3-0.1-0.4-0.4-0.4c-0.2,0-0.4,0-0.5,0
		c-0.1,0-0.1,0-0.2,0c-0.1,0-0.1,0-0.2,0c0,0,0,0,0,0c-0.1,0-0.1,0-0.2-0.1c0,0,0,0-0.1-0.1c0,0,0,0,0-0.1c0,0,0,0,0,0
		c0,0,0-0.1,0-0.1c0-0.2,0-0.5,0-0.8c0-0.4,0.1-0.5,0.5-0.5c1.1,0,1.1,0,1.1-1.2c0-1,0-1,1-1c1,0,1,0,1,1c0,1.2,0,1.2,1.2,1.2
		c0.9,0,0.9,0,0.9,0.9c0,0.8,0,0.8-0.8,0.8c-1.3,0-1.3,0-1.3,1.3v1.1c0,0.3,0,0.7,0,1c0,0.1,0,0.1,0,0.2c0,0.1,0.1,0.2,0.1,0.3
		c0,0,0.1,0.1,0.1,0.1c0,0,0.1,0,0.1,0c0.1,0,0.1,0,0.2,0c0.4,0,0.8,0,1.1,0c0.3,0,0.4,0.1,0.4,0.4c0,1.4,0,1.4-1.3,1.4h-0.4
		c-0.3,0-0.6,0-0.9-0.1C86.2,25.8,85.7,25.2,85.7,24.2z M92.7,26.1c-0.1,0-0.2,0-0.2-0.1c-0.1,0-0.2-0.1-0.3-0.1
		c-0.1-0.1-0.3-0.2-0.5-0.3c-0.2-0.1-0.3-0.2-0.5-0.3C91.1,25.2,91,25.1,91,25c-0.1-0.1-0.1-0.1-0.2-0.2c-0.1-0.2-0.2-0.4-0.2-0.5
		c0,0,0,0,0,0c0-0.1-0.1-0.3-0.1-0.4c-0.1-0.2,0.1-0.2,0.2-0.2c0.3,0,0.5,0,0.8,0c0.2,0,0.4,0,0.5,0h0c0.3,0,0.5,0,0.6,0.3
		c0,0.1,0.1,0.1,0.1,0.2c0,0,0,0.1,0.1,0.1c0,0.1,0.1,0.1,0.2,0.2c0,0,0.1,0.1,0.1,0.1c0,0,0.1,0,0.2,0.1c0.2,0.1,0.3,0.1,0.5,0.1
		c0.1,0,0.2,0,0.3,0c0.4,0,0.9,0,1.3-0.1c0.3-0.1,0.5-0.3,0.5-0.6c0-0.3-0.3-0.5-0.5-0.5c-0.1,0-0.2-0.1-0.4-0.1
		c-0.3-0.1-0.6-0.2-0.9-0.2c-0.4-0.1-0.8-0.2-1.2-0.3c-0.6-0.1-1.2-0.4-1.7-0.8c-0.8-0.5-0.8-2.3,0-3c1.7-1.3,4.4-1.3,6,0.1
		c0.4,0.3,0.6,0.9,0.6,1.4c0,0.2-0.1,0.3-0.3,0.3h-1.5c-0.2,0-0.3,0-0.4-0.2c-0.5-0.8-1.8-1.2-2.7-0.7c-0.2,0.1-0.3,0.3-0.3,0.5
		c0,0.3,0.2,0.4,0.4,0.5c0.7,0.3,1.5,0.4,2.2,0.5c0.7,0.1,1.3,0.3,1.8,0.7c0.1,0.1,0.2,0.1,0.2,0.2s0.1,0.1,0.2,0.2
		c0.1,0.1,0.1,0.2,0.2,0.2c0,0,0,0,0,0c0,0.1,0.1,0.2,0.1,0.3c0,0.1,0.1,0.2,0.1,0.4c0,0.1,0,0.2,0,0.3v0.1c0,0.2,0,0.3,0,0.4
		c-0.1,0.4-0.2,0.8-0.5,1c-0.1,0.1-0.1,0.1-0.2,0.2c-0.1,0.1-0.2,0.1-0.2,0.2c-0.1,0.1-0.2,0.1-0.3,0.2c-0.1,0.1-0.2,0.1-0.3,0.2
		c-0.1,0-0.2,0.1-0.3,0.1c-0.3,0.1-0.5,0.2-0.8,0.2c-0.2,0-0.3,0.1-0.5,0.1c-0.2,0-0.3,0-0.5,0c-0.1,0-0.3,0-0.4,0
		c-0.1,0-0.2,0-0.3,0c-0.1,0-0.3,0-0.4-0.1c-0.1,0-0.2-0.1-0.3-0.1C92.8,26.1,92.8,26.1,92.7,26.1z"/>
	<path class="st1" d="M66.3,20.9c0-1.6,0-3.2,0-4.8c0-0.4,0.1-0.5,0.5-0.5c2.2,0,4.5,0,6.7,0c0.3,0,0.4,0.1,0.4,0.4
		c0,1.4,0,1.4-1.4,1.4c-1.2,0-2.4,0-3.6,0c-0.4,0-0.5,0.1-0.5,0.5c0,0.5,0,1.1,0,1.6c0,0.4,0.1,0.5,0.5,0.5c1.4,0,2.9,0,4.3,0
		c0.4,0,0.5,0.1,0.5,0.5c0,1.2,0,1.2-1.2,1.2c-1.2,0-2.5,0-3.7,0c-0.3,0-0.4,0.1-0.4,0.4c0,0.6,0,1.1,0,1.7c0,0.4,0.1,0.5,0.5,0.5
		c1.5,0,3,0,4.5,0c0.4,0,0.5,0.1,0.5,0.5c0,1.4,0,1.4-1.4,1.4c-1.9,0-3.9,0-5.8,0c-0.4,0-0.5-0.1-0.5-0.5
		C66.3,24,66.3,22.4,66.3,20.9z"/>
	<path class="st1" d="M83.3,19.3c0-0.3,0-0.6-0.2-0.8c-0.3-0.3-0.9,0-1.3-0.1c-0.3,0-0.5,0-0.5,0.3c0,0.1,0,0.1,0,0.2
		c-0.2-0.1-0.4-0.2-0.6-0.2c-2.2-0.9-4-0.5-5.2,1c-1.2,1.5-1.2,3.7,0,5.1c0.9,1.1,2.1,1.6,3.5,1.4c0.7-0.1,1.5-0.3,2.3-0.8
		c-0.2,0.7,0.3,0.6,0.7,0.6c0.3,0,0.6,0,0.8,0c0.4,0,0.5-0.1,0.5-0.5v-0.3c0-1.1,0-2.3,0-3.4v-2.1C83.3,19.6,83.3,19.4,83.3,19.3z
		 M79.9,24.4c-0.1,0.1-0.3,0.1-0.5,0.2c-0.2,0-0.4,0.1-0.5,0.1c-1.3,0-2.4-1.1-2.3-2.4c0-1.3,1.1-2.3,2.4-2.3c0.2,0,0.3,0,0.4,0
		c0.1,0,0.2,0,0.4,0.1c0.1,0,0.2,0.1,0.3,0.2c0,0,0.1,0,0.1,0.1c0.1,0.1,0.2,0.1,0.3,0.2h0c0.2,0.2,0.4,0.4,0.5,0.6
		c0.1,0.1,0.1,0.2,0.1,0.4c0,0,0,0.1,0,0.1c0,0.1,0.1,0.3,0.1,0.4c0,0.1,0,0.2,0,0.3c0,0.1,0,0.2,0,0.4c0,0.1,0,0.2-0.1,0.3
		c0,0.1,0,0.2-0.1,0.2c-0.1,0.3-0.3,0.5-0.5,0.7c0,0.1-0.1,0.1-0.2,0.1c-0.1,0.1-0.2,0.1-0.2,0.2C80.1,24.3,80,24.3,79.9,24.4
		C79.9,24.4,79.9,24.4,79.9,24.4z"/>
	<path class="st2" d="M39.3,20.9c0,1.5,0,3.1,0,4.6c0,0.5-0.2,0.7-0.7,0.6c-0.1,0-0.1,0-0.2,0c-0.5,0.1-0.8,0-0.7-0.6
		c0-0.1,0-0.2-0.1-0.2c-0.1-0.1-0.2,0-0.3,0.1c-1.5,1.4-4.3,1.2-5.6-0.5c-0.6-0.8-0.9-1.6-1-2.5c0-2.1,0-4.2,0-6.3
		c0-0.3,0.1-0.5,0.4-0.5c1.3,0,1.3,0,1.3,1.2c0,1.7,0,3.5,0,5.2c0,1.7,1.1,2.8,2.6,2.8c1,0,1.8-0.5,2.2-1.5c0.2-0.5,0.4-1.1,0.4-1.7
		c0-1.9,0-3.8,0-5.7c0-0.3,0.1-0.4,0.4-0.4c1.2,0,1.2,0,1.2,1.2C39.3,18.2,39.3,19.5,39.3,20.9z"/>
	<path class="st2" d="M48,19.6c-1.2-1.4-3-1.6-5-0.7c-0.2,0.1-0.5,0.2-0.7,0.4v-2.7c0-1,0-1-1-1c-0.4,0-0.5,0.1-0.5,0.5
		c0,1.8,0,3.5,0,5.3c0,1.4,0,2.7,0,4.1c0,0.4,0.1,0.6,0.3,0.6c0.1,0,0.2,0,0.3,0c0.8,0,0.8,0,1-0.9c0.7,0.5,1.4,0.9,2.2,1
		c0.3,0,0.6,0.1,0.9,0c0.4,0,0.7-0.1,1.1-0.2c0.7-0.2,1.3-0.7,1.8-1.4C49.4,23.1,49.2,21,48,19.6z M47.5,22.6c0,0.1,0,0.2,0,0.2
		c0,0.1,0,0.2-0.1,0.3c0,0.1-0.1,0.2-0.1,0.3c0,0.1-0.1,0.2-0.2,0.3c-0.1,0.1-0.2,0.2-0.2,0.3c-0.1,0.1-0.1,0.1-0.2,0.2
		c-0.1,0.1-0.2,0.1-0.3,0.2c-0.1,0-0.1,0.1-0.2,0.1c-0.1,0-0.2,0.1-0.2,0.1c-0.1,0-0.2,0.1-0.3,0.1c-0.2,0-0.3,0.1-0.5,0.1
		c-0.1,0-0.2,0-0.3,0c-0.3,0-0.5,0-0.8-0.1c0,0-0.1,0-0.2-0.1c-0.2-0.1-0.5-0.2-0.6-0.3c-0.1-0.1-0.2-0.2-0.3-0.2
		c-0.1-0.1-0.1-0.1-0.2-0.2c-0.2-0.2-0.3-0.4-0.4-0.6c0-0.1,0-0.1-0.1-0.2c0-0.1,0-0.1-0.1-0.2c0-0.1-0.1-0.2-0.1-0.3
		c0-0.1,0-0.2,0-0.3c0-0.1,0-0.3,0-0.4c0-0.1,0.1-0.3,0.1-0.4c0-0.1,0.1-0.3,0.2-0.4c0-0.1,0.1-0.2,0.2-0.3c0-0.1,0.1-0.1,0.1-0.1
		c0.1-0.1,0.2-0.2,0.3-0.3c0.1-0.1,0.2-0.1,0.3-0.2c0.1-0.1,0.2-0.2,0.4-0.2c0.1-0.1,0.3-0.1,0.4-0.1c0.1,0,0.2-0.1,0.3-0.1
		c0,0,0,0,0,0c0.1,0,0.2,0,0.3,0c0,0,0,0,0,0c1.4,0,2.6,1.2,2.6,2.6C47.5,22.4,47.5,22.5,47.5,22.6z"/>
	<path class="st1" d="M91.5,23.6c0.2,0,0.4,0,0.5,0c0.3,0,0.5,0,0.6,0.4c0.3,0.6,0.9,0.7,1.4,0.8c0.4,0,0.9,0,1.3-0.1
		c0.3-0.1,0.5-0.3,0.5-0.6c0-0.3-0.3-0.5-0.5-0.5c-0.8-0.2-1.7-0.4-2.5-0.6c-0.6-0.1-1.2-0.4-1.7-0.8c-0.8-0.5-0.8-2.3,0-3
		c1.7-1.3,4.4-1.3,6.1,0.1c0.4,0.3,0.5,0.9,0.6,1.4c0,0.2-0.1,0.3-0.3,0.3c-0.5,0-1,0-1.5,0c-0.2,0-0.3,0-0.4-0.2
		c-0.5-0.8-1.8-1.2-2.7-0.7c-0.2,0.1-0.3,0.3-0.3,0.5c0,0.3,0.2,0.4,0.4,0.5c0.7,0.3,1.5,0.4,2.2,0.5c0.7,0.1,1.3,0.3,1.8,0.7
		c0.6,0.3,0.8,0.9,0.8,1.6c0,0.7-0.3,1.4-1,1.8c-2,1.1-4,1.1-5.9-0.3c-0.5-0.3-0.6-0.9-0.8-1.4c-0.1-0.2,0.1-0.2,0.3-0.2
		C90.9,23.6,91.2,23.6,91.5,23.6z"/>
	<path class="st2" d="M56.7,22.8c1.1,0,1.1,0,1-1.1c-0.4-3.2-3.8-4.1-5.9-2.8c-1.6,1-2.2,2.9-1.7,4.6c0.1,0.4,0.3,0.8,0.6,1.2
		c0.4,0.6,1,1,1.7,1.3c1.4,0.6,3.1,0.4,4.3-0.6c0,0,0,0,0.1-0.1c0.7-0.6,0.6-0.6,0-1.1c-0.3-0.3-0.5-0.2-0.9,0
		c-0.1,0.1-0.2,0.1-0.3,0.2c-0.8,0.6-1.7,0.6-2.4,0.4c-0.4-0.1-0.7-0.4-1-0.6c0,0-0.1-0.1-0.1-0.1c-0.3-0.4-0.5-0.8-0.6-1.2H56.7z
		 M51.5,21.2c0.5-1.4,2.2-2,3.4-1.2c0.5,0.3,0.9,0.6,1.1,1.2c0.1,0.3,0.1,0.4-0.2,0.4c-0.7,0-1.3,0-2,0c-0.7,0-1.3,0-2,0
		C51.5,21.6,51.4,21.5,51.5,21.2z"/>
	<path class="st1" d="M85.7,22.4c0-0.6,0-1.2,0-1.9c0-0.3-0.1-0.4-0.4-0.4c-1.2,0-1.2,0-1.2-1.3c0-0.4,0.1-0.5,0.5-0.5
		c1.1,0,1.1,0,1.1-1.2c0-1,0-1,1-1c1,0,1,0,1,1c0,1.2,0,1.2,1.3,1.2c0.9,0,0.9,0,0.9,0.9c0,0.9,0,0.9-0.8,0.9c-1.3,0-1.3,0-1.3,1.3
		c0,0.7,0,1.5,0,2.2c0,0.4,0.2,0.6,0.6,0.6c0.4,0,0.7,0,1.1,0c0.3,0,0.4,0.1,0.4,0.4c0,1.4,0,1.4-1.3,1.4c-0.4,0-0.9,0-1.3-0.1
		c-1-0.2-1.5-0.9-1.5-1.8C85.7,23.6,85.7,23,85.7,22.4z"/>
	<path class="st2" d="M60.2,19.3c0.6-0.8,1.3-0.9,2.1-0.9c0.2,0,0.4,0.1,0.3,0.3c0,0,0,0.1,0,0.1c0,0.9,0,0.9-0.9,1
		c-1,0.1-1.5,0.8-1.5,2c0,1.3,0,2.6,0,3.9c0,0.4-0.1,0.4-0.4,0.4c-1.1,0-1.1,0-1.1-1.1c0-2,0-4,0-6c0-0.5,0.1-0.6,0.6-0.5
		c0.1,0,0.1,0,0.2,0C60.1,18.5,60.1,18.5,60.2,19.3z"/>
	<path d="M79,19.9c1.3,0,2.3,1,2.3,2.4c0,1.3-1.1,2.3-2.4,2.3c-1.3,0-2.3-1.1-2.3-2.4C76.6,20.9,77.6,19.9,79,19.9z"/>
	<path d="M44.9,19.7c1.4,0,2.6,1.2,2.6,2.6c0,1.4-1.2,2.6-2.6,2.6c-1.5,0-2.7-1.2-2.7-2.6C42.2,20.9,43.4,19.7,44.9,19.7z"/>
	<path d="M53.8,21.6c-0.7,0-1.3,0-2,0c-0.3,0-0.4-0.1-0.3-0.4c0.5-1.4,2.2-2,3.4-1.2c0.5,0.3,0.9,0.6,1.1,1.2
		c0.1,0.3,0.1,0.4-0.2,0.4C55.1,21.6,54.4,21.6,53.8,21.6z"/>
</g>
</svg>
