<?xml version="1.0" encoding="utf-8"?>
<!-- Generator: Adobe Illustrator 26.0.1, SVG Export Plug-In . SVG Version: 6.00 Build 0)  -->
<svg version="1.1" id="Layer_1" xmlns="http://www.w3.org/2000/svg" xmlns:xlink="http://www.w3.org/1999/xlink" x="0px" y="0px"
	 viewBox="0 0 145 44" style="enable-background:new 0 0 145 44;" xml:space="preserve">
<style type="text/css">
	.st0{fill:#FFFFFF;}
	.st1{fill:#00C1FF;}
	.st2{fill:url(#SVGID_1_);}
	.st3{fill:url(#SVGID_00000054951352833229612360000011641751177874984111_);}
	.st4{fill:url(#SVGID_00000056390748537629199030000015810499099817681850_);}
	.st5{fill:url(#SVGID_00000083065746677545601390000012799284298199764881_);}
	.st6{fill:url(#SVGID_00000149340454655135424320000003027253218438197671_);}
	.st7{fill:url(#SVGID_00000008146359901243412970000010668612452970397602_);}
	.st8{fill:url(#SVGID_00000130619804229554300720000008040999942019966854_);}
	.st9{fill:url(#SVGID_00000140711620046727844990000014638692166441188756_);}
	.st10{fill:url(#SVGID_00000034075897127481346220000012145582385348384951_);}
	.st11{fill:#FBC334;}
	.st12{fill:#FBBC35;}
	.st13{fill:#FBB834;}
	.st14{fill:#F9B934;}
	.st15{fill:#010100;}
	.st16{fill:#FEFDFA;}
	.st17{fill:#FCD899;}
	.st18{fill:#3B3B3C;}
	.st19{fill:#121110;}
	.st20{fill:#F9B134;}
</style>
<path d="M144.2,5.4v32.3c0,3-2.4,5.4-5.3,5.4H5.3C2.4,43,0,40.6,0,37.7V5.4C0,2.4,2.4,0,5.3,0h133.5C141.8,0,144.2,2.4,144.2,5.4z"
	/>
<path class="st0" d="M50.6,11c0,0.9-0.3,1.6-0.8,2.2c-0.6,0.6-1.4,1-2.4,1c-0.9,0-1.7-0.3-2.4-1c-0.6-0.6-1-1.4-1-2.4
	c0-1,0.3-1.8,1-2.4c0.6-0.6,1.4-1,2.4-1c0.5,0,0.9,0.1,1.3,0.3c0.4,0.2,0.8,0.4,1,0.7l-0.6,0.6c-0.4-0.5-1-0.8-1.8-0.8
	c-0.7,0-1.3,0.2-1.7,0.7C45.2,9.4,45,10,45,10.8c0,0.8,0.2,1.4,0.7,1.9c0.5,0.5,1.1,0.7,1.7,0.7c0.7,0,1.3-0.2,1.8-0.7
	c0.3-0.3,0.5-0.7,0.5-1.3h-2.3v-0.8h3.1C50.6,10.7,50.6,10.9,50.6,11L50.6,11z"/>
<path class="st0" d="M55.6,8.3V7.5h-3.7V14h3.7v-0.8h-2.9v-2h2.6v-0.8h-2.6v-2H55.6z M50.7,10.5L50.7,10.5l-3.3-0.1v1h2.3
	c-0.1,0.5-0.2,0.9-0.5,1.1c-0.1,0.1-0.3,0.3-0.4,0.4c-0.4,0.2-0.8,0.3-1.3,0.3c-0.1,0-0.2,0-0.2,0c-0.5,0-1-0.3-1.4-0.7
	c-0.5-0.4-0.7-1-0.7-1.8c0-0.2,0-0.5,0.1-0.7c0.1-0.4,0.3-0.8,0.6-1.1c0.5-0.5,1-0.7,1.7-0.7c0.7,0,1.3,0.2,1.7,0.7l0.1,0.1l0.7-0.7
	L50,8.4l-0.1-0.1c-0.3-0.3-0.6-0.6-1-0.8c-0.4-0.2-0.9-0.3-1.4-0.3c-1,0-1.8,0.3-2.4,1c-0.7,0.7-1,1.5-1,2.5c0,0.2,0,0.4,0,0.6
	c0.1,0.7,0.4,1.4,1,1.9c0.1,0.1,0.2,0.2,0.3,0.3c0.5,0.4,1.2,0.7,1.8,0.7c0.1,0,0.2,0,0.3,0c0.3,0,0.6,0,0.8-0.1c0,0,0,0,0,0
	c0.5-0.1,0.9-0.3,1.3-0.7c0,0,0,0,0.1-0.1l0,0c0.1,0,0.1-0.1,0.2-0.2c0.5-0.5,0.8-1.3,0.8-2.2C50.7,10.9,50.7,10.7,50.7,10.5z
	 M47.5,14c-0.2,0-0.3,0-0.5,0c-0.7-0.1-1.3-0.4-1.8-0.9l0,0c-0.4-0.5-0.7-1-0.8-1.6c0-0.2-0.1-0.5-0.1-0.7c0-0.9,0.3-1.7,0.9-2.3
	c0.6-0.6,1.4-0.9,2.3-0.9c0.4,0,0.9,0.1,1.3,0.3c0.4,0.2,0.7,0.4,0.9,0.6l-0.4,0.4c-0.4-0.5-1-0.7-1.8-0.7c-0.7,0-1.3,0.2-1.8,0.8
	c-0.4,0.4-0.7,0.9-0.7,1.5c0,0.2,0,0.3,0,0.5c0,0.5,0.1,0.9,0.3,1.2l0,0c0.1,0.3,0.3,0.5,0.5,0.7c0.2,0.2,0.5,0.4,0.8,0.5h0
	c0.3,0.1,0.6,0.2,1,0.2h0c0.5,0,1-0.1,1.4-0.4c0.2-0.1,0.3-0.2,0.4-0.4c0.3-0.3,0.5-0.8,0.6-1.4l0-0.1h-2.3v-0.6h2.9
	c0,0.1,0,0.3,0,0.4c0,0.9-0.3,1.6-0.8,2.1c-0.1,0.1-0.2,0.2-0.3,0.3c-0.4,0.3-0.8,0.5-1.4,0.6C47.9,14,47.7,14,47.5,14z"/>
<path class="st0" d="M56.4,7.5v0.8h1.8V14H59V8.3h1.8V7.5H56.4z M55.7,8.4v-1h-4v6.7h4v-1h-2.9v-1.8h2.6v-1h-2.6V8.4H55.7z M55.2,11
	h-2.6v2.3h2.9v0.6h-3.5V7.6h3.5v0.6h-2.9v2.3h2.6V11z"/>
<path class="st0" d="M64,7.5V14h0.8V7.5H64z M56.3,7.4v1h1.8v5.7h1V8.4h1.8v-1H56.3z M60.7,8.2h-1.8v5.7h-0.6V8.2h-1.8V7.6h4.2V8.2z
	"/>
<path class="st0" d="M65.9,7.5v0.8h1.8V14h0.8V8.3h1.8V7.5H65.9z M63.9,7.4v6.7h1V7.4H63.9z M64.7,13.9h-0.6V7.6h0.6V13.9z"/>
<path class="st0" d="M75.1,13.1L75.1,13.1l0.2,0.1C75.2,13.1,75.2,13.1,75.1,13.1z M75.1,13.1L75.1,13.1l0.2,0.1
	C75.2,13.1,75.2,13.1,75.1,13.1z M75.1,13.1L75.1,13.1l0.2,0.1C75.2,13.1,75.2,13.1,75.1,13.1z M75.1,13.1L75.1,13.1l0.2,0.1
	C75.2,13.1,75.2,13.1,75.1,13.1z M78.6,8.4c-0.6-0.7-1.4-1-2.3-1c-0.9,0-1.7,0.3-2.4,1C73.3,9,73,9.8,73,10.8c0,0.1,0,0.3,0,0.4
	c0.1,0.8,0.4,1.4,0.9,2c0.2,0.2,0.4,0.4,0.6,0.5c0.5,0.3,1.1,0.5,1.7,0.5c0.9,0,1.7-0.3,2.3-0.9c0,0,0,0,0.1,0
	c0.6-0.7,0.9-1.5,0.9-2.4S79.2,9,78.6,8.4z M77.2,13.2c-0.3,0.1-0.6,0.2-0.9,0.2c-0.4,0-0.7-0.1-1-0.2c-0.1,0-0.1-0.1-0.2-0.1h0
	c-0.2-0.1-0.4-0.3-0.6-0.5c-0.1-0.1-0.2-0.2-0.3-0.4l0,0v0c-0.3-0.4-0.4-0.9-0.4-1.4c0-0.8,0.2-1.4,0.7-1.9c0.5-0.5,1-0.7,1.7-0.7
	s1.3,0.2,1.7,0.7c0.5,0.5,0.7,1.1,0.7,1.9s-0.2,1.4-0.7,1.8C77.8,12.9,77.5,13.1,77.2,13.2z M75.1,13.1L75.1,13.1l0.2,0.1
	C75.2,13.1,75.2,13.1,75.1,13.1z M75.1,13.1L75.1,13.1l0.2,0.1C75.2,13.1,75.2,13.1,75.1,13.1z M75.1,13.1L75.1,13.1l0.2,0.1
	C75.2,13.1,75.2,13.1,75.1,13.1z M75.1,13.1L75.1,13.1l0.2,0.1C75.2,13.1,75.2,13.1,75.1,13.1z M65.8,7.4v1h1.8v5.7h1V8.4h1.8v-1
	H65.8z M70.2,8.2h-1.8v5.7h-0.6V8.2H66V7.6h4.2V8.2z"/>
<path class="st0" d="M84.8,7.5v3.8l0,0.3l0,0.8v0.1h0l-0.1-0.1l-0.5-0.8l-1.7-2.8l-0.8-1.2h-1V14h0.8v-4l0-1.1V8.7h0l0.1,0.1
	l0.9,1.4l0.8,1.4l1.5,2.4h0.9V7.5H84.8z M78.1,8.8c-0.5-0.5-1.1-0.8-1.8-0.8c-0.7,0-1.3,0.3-1.8,0.8s-0.7,1.2-0.7,1.9
	c0,0.5,0.1,0.9,0.3,1.2c0.1,0.3,0.3,0.5,0.5,0.7c0.2,0.2,0.4,0.4,0.7,0.5c0.3,0.2,0.7,0.2,1.1,0.2c0.4,0,0.8-0.1,1.1-0.3h0.1
	c0.2-0.1,0.4-0.3,0.6-0.5c0.5-0.5,0.8-1.2,0.8-1.9S78.6,9.3,78.1,8.8z M76.8,13.2c-0.2,0-0.3,0-0.5,0c-0.2,0-0.4,0-0.6-0.1h-0.1
	c-0.4-0.1-0.7-0.3-1-0.6c-0.5-0.5-0.7-1-0.7-1.8s0.2-1.3,0.7-1.8c0.5-0.5,1-0.7,1.7-0.7c0.7,0,1.2,0.2,1.7,0.7
	c0.5,0.5,0.7,1.1,0.7,1.8s-0.2,1.3-0.7,1.8C77.6,12.9,77.3,13.1,76.8,13.2L76.8,13.2z M78.1,8.8c-0.5-0.5-1.1-0.8-1.8-0.8
	c-0.7,0-1.3,0.3-1.8,0.8s-0.7,1.2-0.7,1.9c0,0.5,0.1,0.9,0.3,1.2c0.1,0.3,0.3,0.5,0.5,0.7c0.2,0.2,0.4,0.4,0.7,0.5
	c0.3,0.2,0.7,0.2,1.1,0.2c0.4,0,0.8-0.1,1.1-0.3h0.1c0.2-0.1,0.4-0.3,0.6-0.5c0.5-0.5,0.8-1.2,0.8-1.9S78.6,9.3,78.1,8.8z
	 M76.8,13.2c-0.2,0-0.3,0-0.5,0c-0.2,0-0.4,0-0.6-0.1h-0.1c-0.4-0.1-0.7-0.3-1-0.6c-0.5-0.5-0.7-1-0.7-1.8s0.2-1.3,0.7-1.8
	c0.5-0.5,1-0.7,1.7-0.7c0.7,0,1.2,0.2,1.7,0.7c0.5,0.5,0.7,1.1,0.7,1.8s-0.2,1.3-0.7,1.8C77.6,12.9,77.3,13.1,76.8,13.2L76.8,13.2z
	 M78.1,8.8c-0.5-0.5-1.1-0.8-1.8-0.8c-0.7,0-1.3,0.3-1.8,0.8s-0.7,1.2-0.7,1.9c0,0.5,0.1,0.9,0.3,1.2c0.1,0.3,0.3,0.5,0.5,0.7
	c0.2,0.2,0.4,0.4,0.7,0.5c0.3,0.2,0.7,0.2,1.1,0.2c0.4,0,0.8-0.1,1.1-0.3h0.1c0.2-0.1,0.4-0.3,0.6-0.5c0.5-0.5,0.8-1.2,0.8-1.9
	S78.6,9.3,78.1,8.8z M76.8,13.2c-0.2,0-0.3,0-0.5,0c-0.2,0-0.4,0-0.6-0.1h-0.1c-0.4-0.1-0.7-0.3-1-0.6c-0.5-0.5-0.7-1-0.7-1.8
	s0.2-1.3,0.7-1.8c0.5-0.5,1-0.7,1.7-0.7c0.7,0,1.2,0.2,1.7,0.7c0.5,0.5,0.7,1.1,0.7,1.8s-0.2,1.3-0.7,1.8
	C77.6,12.9,77.3,13.1,76.8,13.2L76.8,13.2z M78.1,8.8c-0.5-0.5-1.1-0.8-1.8-0.8c-0.7,0-1.3,0.3-1.8,0.8s-0.7,1.2-0.7,1.9
	c0,0.5,0.1,0.9,0.3,1.2c0.1,0.3,0.3,0.5,0.5,0.7c0.2,0.2,0.4,0.4,0.7,0.5c0.3,0.2,0.7,0.2,1.1,0.2c0.4,0,0.8-0.1,1.1-0.3h0.1
	c0.2-0.1,0.4-0.3,0.6-0.5c0.5-0.5,0.8-1.2,0.8-1.9S78.6,9.3,78.1,8.8z M76.8,13.2c-0.2,0-0.3,0-0.5,0c-0.2,0-0.4,0-0.6-0.1h-0.1
	c-0.4-0.1-0.7-0.3-1-0.6c-0.5-0.5-0.7-1-0.7-1.8s0.2-1.3,0.7-1.8c0.5-0.5,1-0.7,1.7-0.7c0.7,0,1.2,0.2,1.7,0.7
	c0.5,0.5,0.7,1.1,0.7,1.8s-0.2,1.3-0.7,1.8C77.6,12.9,77.3,13.1,76.8,13.2L76.8,13.2z M78.1,8.8c-0.5-0.5-1.1-0.8-1.8-0.8
	c-0.7,0-1.3,0.3-1.8,0.8s-0.7,1.2-0.7,1.9c0,0.5,0.1,0.9,0.3,1.2c0.1,0.3,0.3,0.5,0.5,0.7c0.2,0.2,0.4,0.4,0.7,0.5
	c0.3,0.2,0.7,0.2,1.1,0.2c0.4,0,0.8-0.1,1.1-0.3h0.1c0.2-0.1,0.4-0.3,0.6-0.5c0.5-0.5,0.8-1.2,0.8-1.9S78.6,9.3,78.1,8.8z
	 M76.8,13.2c-0.2,0-0.3,0-0.5,0c-0.2,0-0.4,0-0.6-0.1h-0.1c-0.4-0.1-0.7-0.3-1-0.6c-0.5-0.5-0.7-1-0.7-1.8s0.2-1.3,0.7-1.8
	c0.5-0.5,1-0.7,1.7-0.7c0.7,0,1.2,0.2,1.7,0.7c0.5,0.5,0.7,1.1,0.7,1.8s-0.2,1.3-0.7,1.8C77.6,12.9,77.3,13.1,76.8,13.2L76.8,13.2z
	 M78.1,8.8c-0.5-0.5-1.1-0.8-1.8-0.8c-0.7,0-1.3,0.3-1.8,0.8s-0.7,1.2-0.7,1.9c0,0.5,0.1,0.9,0.3,1.2c0.1,0.3,0.3,0.5,0.5,0.7
	c0.2,0.2,0.4,0.4,0.7,0.5c0.3,0.2,0.7,0.2,1.1,0.2c0.4,0,0.8-0.1,1.1-0.3h0.1c0.2-0.1,0.4-0.3,0.6-0.5c0.5-0.5,0.8-1.2,0.8-1.9
	S78.6,9.3,78.1,8.8z M76.8,13.2c-0.2,0-0.3,0-0.5,0c-0.2,0-0.4,0-0.6-0.1h-0.1c-0.4-0.1-0.7-0.3-1-0.6c-0.5-0.5-0.7-1-0.7-1.8
	s0.2-1.3,0.7-1.8c0.5-0.5,1-0.7,1.7-0.7c0.7,0,1.2,0.2,1.7,0.7c0.5,0.5,0.7,1.1,0.7,1.8s-0.2,1.3-0.7,1.8
	C77.6,12.9,77.3,13.1,76.8,13.2L76.8,13.2z M78.1,8.8c-0.5-0.5-1.1-0.8-1.8-0.8c-0.7,0-1.3,0.3-1.8,0.8s-0.7,1.2-0.7,1.9
	c0,0.5,0.1,0.9,0.3,1.2c0.1,0.3,0.3,0.5,0.5,0.7c0.2,0.2,0.4,0.4,0.7,0.5c0.3,0.2,0.7,0.2,1.1,0.2c0.4,0,0.8-0.1,1.1-0.3h0.1
	c0.2-0.1,0.4-0.3,0.6-0.5c0.5-0.5,0.8-1.2,0.8-1.9S78.6,9.3,78.1,8.8z M76.8,13.2c-0.2,0-0.3,0-0.5,0c-0.2,0-0.4,0-0.6-0.1h-0.1
	c-0.4-0.1-0.7-0.3-1-0.6c-0.5-0.5-0.7-1-0.7-1.8s0.2-1.3,0.7-1.8c0.5-0.5,1-0.7,1.7-0.7c0.7,0,1.2,0.2,1.7,0.7
	c0.5,0.5,0.7,1.1,0.7,1.8s-0.2,1.3-0.7,1.8C77.6,12.9,77.3,13.1,76.8,13.2L76.8,13.2z M78.1,8.8c-0.5-0.5-1.1-0.8-1.8-0.8
	c-0.7,0-1.3,0.3-1.8,0.8s-0.7,1.2-0.7,1.9c0,0.5,0.1,0.9,0.3,1.2c0.1,0.3,0.3,0.5,0.5,0.7c0.2,0.2,0.4,0.4,0.7,0.5
	c0.3,0.2,0.7,0.2,1.1,0.2c0.4,0,0.8-0.1,1.1-0.3h0.1c0.2-0.1,0.4-0.3,0.6-0.5c0.5-0.5,0.8-1.2,0.8-1.9S78.6,9.3,78.1,8.8z
	 M76.8,13.2c-0.2,0-0.3,0-0.5,0c-0.2,0-0.4,0-0.6-0.1h-0.1c-0.4-0.1-0.7-0.3-1-0.6c-0.5-0.5-0.7-1-0.7-1.8s0.2-1.3,0.7-1.8
	c0.5-0.5,1-0.7,1.7-0.7c0.7,0,1.2,0.2,1.7,0.7c0.5,0.5,0.7,1.1,0.7,1.8s-0.2,1.3-0.7,1.8C77.6,12.9,77.3,13.1,76.8,13.2L76.8,13.2z
	 M78.1,8.8c-0.5-0.5-1.1-0.8-1.8-0.8c-0.7,0-1.3,0.3-1.8,0.8s-0.7,1.2-0.7,1.9c0,0.5,0.1,0.9,0.3,1.2c0.1,0.3,0.3,0.5,0.5,0.7
	c0.2,0.2,0.4,0.4,0.7,0.5c0.3,0.2,0.7,0.2,1.1,0.2c0.4,0,0.8-0.1,1.1-0.3h0.1c0.2-0.1,0.4-0.3,0.6-0.5c0.5-0.5,0.8-1.2,0.8-1.9
	S78.6,9.3,78.1,8.8z M76.8,13.2c-0.2,0-0.3,0-0.5,0c-0.2,0-0.4,0-0.6-0.1h-0.1c-0.4-0.1-0.7-0.3-1-0.6c-0.5-0.5-0.7-1-0.7-1.8
	s0.2-1.3,0.7-1.8c0.5-0.5,1-0.7,1.7-0.7c0.7,0,1.2,0.2,1.7,0.7c0.5,0.5,0.7,1.1,0.7,1.8s-0.2,1.3-0.7,1.8
	C77.6,12.9,77.3,13.1,76.8,13.2L76.8,13.2z M78.1,8.8c-0.5-0.5-1.1-0.8-1.8-0.8c-0.7,0-1.3,0.3-1.8,0.8s-0.7,1.2-0.7,1.9
	c0,0.5,0.1,0.9,0.3,1.2c0.1,0.3,0.3,0.5,0.5,0.7c0.2,0.2,0.4,0.4,0.7,0.5c0.3,0.2,0.7,0.2,1.1,0.2c0.4,0,0.8-0.1,1.1-0.3h0.1
	c0.2-0.1,0.4-0.3,0.6-0.5c0.5-0.5,0.8-1.2,0.8-1.9S78.6,9.3,78.1,8.8z M76.8,13.2c-0.2,0-0.3,0-0.5,0c-0.2,0-0.4,0-0.6-0.1h-0.1
	c-0.4-0.1-0.7-0.3-1-0.6c-0.5-0.5-0.7-1-0.7-1.8s0.2-1.3,0.7-1.8c0.5-0.5,1-0.7,1.7-0.7c0.7,0,1.2,0.2,1.7,0.7
	c0.5,0.5,0.7,1.1,0.7,1.8s-0.2,1.3-0.7,1.8C77.6,12.9,77.3,13.1,76.8,13.2L76.8,13.2z M78.7,8.3c-0.6-0.7-1.5-1-2.4-1
	c-1,0-1.8,0.3-2.4,1c-0.7,0.7-1,1.5-1,2.5c0,0.1,0,0.2,0,0.3c0.1,0.8,0.4,1.5,1,2.1c0.2,0.2,0.4,0.4,0.6,0.5
	c0.5,0.3,1.1,0.5,1.8,0.5c1,0,1.8-0.3,2.4-1c0,0,0,0,0,0c0.6-0.7,1-1.5,1-2.5C79.7,9.8,79.3,9,78.7,8.3z M78.4,13.2
	c-0.6,0.5-1.3,0.8-2.1,0.8c-0.6,0-1.2-0.1-1.6-0.4c-0.2-0.1-0.5-0.3-0.7-0.5v0c-0.5-0.5-0.8-1.1-0.9-1.8c0-0.2,0-0.3,0-0.5
	c0-0.9,0.3-1.7,0.9-2.3c0.6-0.6,1.4-0.9,2.3-1c0.9,0,1.6,0.3,2.3,1c0.6,0.6,0.9,1.4,0.9,2.3c0,0.9-0.3,1.7-0.9,2.3
	C78.5,13.1,78.5,13.2,78.4,13.2z M78.1,8.8c-0.5-0.5-1.1-0.8-1.8-0.8c-0.7,0-1.3,0.3-1.8,0.8s-0.7,1.2-0.7,1.9
	c0,0.5,0.1,0.9,0.3,1.2c0.1,0.3,0.3,0.5,0.5,0.7c0.2,0.2,0.4,0.4,0.7,0.5c0.3,0.2,0.7,0.2,1.1,0.2c0.4,0,0.8-0.1,1.1-0.3h0.1
	c0.2-0.1,0.4-0.3,0.6-0.5c0.5-0.5,0.8-1.2,0.8-1.9S78.6,9.3,78.1,8.8z M76.8,13.2c-0.2,0-0.3,0-0.5,0c-0.2,0-0.4,0-0.6-0.1h-0.1
	c-0.4-0.1-0.7-0.3-1-0.6c-0.5-0.5-0.7-1-0.7-1.8s0.2-1.3,0.7-1.8c0.5-0.5,1-0.7,1.7-0.7c0.7,0,1.2,0.2,1.7,0.7
	c0.5,0.5,0.7,1.1,0.7,1.8s-0.2,1.3-0.7,1.8C77.6,12.9,77.3,13.1,76.8,13.2L76.8,13.2z M78.1,8.8c-0.5-0.5-1.1-0.8-1.8-0.8
	c-0.7,0-1.3,0.3-1.8,0.8s-0.7,1.2-0.7,1.9c0,0.5,0.1,0.9,0.3,1.2c0.1,0.3,0.3,0.5,0.5,0.7c0.2,0.2,0.4,0.4,0.7,0.5
	c0.3,0.2,0.7,0.2,1.1,0.2c0.4,0,0.8-0.1,1.1-0.3h0.1c0.2-0.1,0.4-0.3,0.6-0.5c0.5-0.5,0.8-1.2,0.8-1.9S78.6,9.3,78.1,8.8z
	 M76.8,13.2c-0.2,0-0.3,0-0.5,0c-0.2,0-0.4,0-0.6-0.1h-0.1c-0.4-0.1-0.7-0.3-1-0.6c-0.5-0.5-0.7-1-0.7-1.8s0.2-1.3,0.7-1.8
	c0.5-0.5,1-0.7,1.7-0.7c0.7,0,1.2,0.2,1.7,0.7c0.5,0.5,0.7,1.1,0.7,1.8s-0.2,1.3-0.7,1.8C77.6,12.9,77.3,13.1,76.8,13.2L76.8,13.2z
	 M78.1,8.8c-0.5-0.5-1.1-0.8-1.8-0.8c-0.7,0-1.3,0.3-1.8,0.8s-0.7,1.2-0.7,1.9c0,0.5,0.1,0.9,0.3,1.2c0.1,0.3,0.3,0.5,0.5,0.7
	c0.2,0.2,0.4,0.4,0.7,0.5c0.3,0.2,0.7,0.2,1.1,0.2c0.4,0,0.8-0.1,1.1-0.3h0.1c0.2-0.1,0.4-0.3,0.6-0.5c0.5-0.5,0.8-1.2,0.8-1.9
	S78.6,9.3,78.1,8.8z M76.8,13.2c-0.2,0-0.3,0-0.5,0c-0.2,0-0.4,0-0.6-0.1h-0.1c-0.4-0.1-0.7-0.3-1-0.6c-0.5-0.5-0.7-1-0.7-1.8
	s0.2-1.3,0.7-1.8c0.5-0.5,1-0.7,1.7-0.7c0.7,0,1.2,0.2,1.7,0.7c0.5,0.5,0.7,1.1,0.7,1.8s-0.2,1.3-0.7,1.8
	C77.6,12.9,77.3,13.1,76.8,13.2L76.8,13.2z M78.1,8.8c-0.5-0.5-1.1-0.8-1.8-0.8c-0.7,0-1.3,0.3-1.8,0.8s-0.7,1.2-0.7,1.9
	c0,0.5,0.1,0.9,0.3,1.2c0.1,0.3,0.3,0.5,0.5,0.7c0.2,0.2,0.4,0.4,0.7,0.5c0.3,0.2,0.7,0.2,1.1,0.2c0.4,0,0.8-0.1,1.1-0.3h0.1
	c0.2-0.1,0.4-0.3,0.6-0.5c0.5-0.5,0.8-1.2,0.8-1.9S78.6,9.3,78.1,8.8z M76.8,13.2c-0.2,0-0.3,0-0.5,0c-0.2,0-0.4,0-0.6-0.1h-0.1
	c-0.4-0.1-0.7-0.3-1-0.6c-0.5-0.5-0.7-1-0.7-1.8s0.2-1.3,0.7-1.8c0.5-0.5,1-0.7,1.7-0.7c0.7,0,1.2,0.2,1.7,0.7
	c0.5,0.5,0.7,1.1,0.7,1.8s-0.2,1.3-0.7,1.8C77.6,12.9,77.3,13.1,76.8,13.2L76.8,13.2z M78.1,8.8c-0.5-0.5-1.1-0.8-1.8-0.8
	c-0.7,0-1.3,0.3-1.8,0.8s-0.7,1.2-0.7,1.9c0,0.5,0.1,0.9,0.3,1.2c0.1,0.3,0.3,0.5,0.5,0.7c0.2,0.2,0.4,0.4,0.7,0.5
	c0.3,0.2,0.7,0.2,1.1,0.2c0.4,0,0.8-0.1,1.1-0.3h0.1c0.2-0.1,0.4-0.3,0.6-0.5c0.5-0.5,0.8-1.2,0.8-1.9S78.6,9.3,78.1,8.8z
	 M76.8,13.2c-0.2,0-0.3,0-0.5,0c-0.2,0-0.4,0-0.6-0.1h-0.1c-0.4-0.1-0.7-0.3-1-0.6c-0.5-0.5-0.7-1-0.7-1.8s0.2-1.3,0.7-1.8
	c0.5-0.5,1-0.7,1.7-0.7c0.7,0,1.2,0.2,1.7,0.7c0.5,0.5,0.7,1.1,0.7,1.8s-0.2,1.3-0.7,1.8C77.6,12.9,77.3,13.1,76.8,13.2L76.8,13.2z
	 M78.1,8.8c-0.5-0.5-1.1-0.8-1.8-0.8c-0.7,0-1.3,0.3-1.8,0.8s-0.7,1.2-0.7,1.9c0,0.5,0.1,0.9,0.3,1.2c0.1,0.3,0.3,0.5,0.5,0.7
	c0.2,0.2,0.4,0.4,0.7,0.5c0.3,0.2,0.7,0.2,1.1,0.2c0.4,0,0.8-0.1,1.1-0.3h0.1c0.2-0.1,0.4-0.3,0.6-0.5c0.5-0.5,0.8-1.2,0.8-1.9
	S78.6,9.3,78.1,8.8z M76.8,13.2c-0.2,0-0.3,0-0.5,0c-0.2,0-0.4,0-0.6-0.1h-0.1c-0.4-0.1-0.7-0.3-1-0.6c-0.5-0.5-0.7-1-0.7-1.8
	s0.2-1.3,0.7-1.8c0.5-0.5,1-0.7,1.7-0.7c0.7,0,1.2,0.2,1.7,0.7c0.5,0.5,0.7,1.1,0.7,1.8s-0.2,1.3-0.7,1.8
	C77.6,12.9,77.3,13.1,76.8,13.2L76.8,13.2z M78.1,8.8c-0.5-0.5-1.1-0.8-1.8-0.8c-0.7,0-1.3,0.3-1.8,0.8s-0.7,1.2-0.7,1.9
	c0,0.5,0.1,0.9,0.3,1.2c0.1,0.3,0.3,0.5,0.5,0.7c0.2,0.2,0.4,0.4,0.7,0.5c0.3,0.2,0.7,0.2,1.1,0.2c0.4,0,0.8-0.1,1.1-0.3h0.1
	c0.2-0.1,0.4-0.3,0.6-0.5c0.5-0.5,0.8-1.2,0.8-1.9S78.6,9.3,78.1,8.8z M76.8,13.2c-0.2,0-0.3,0-0.5,0c-0.2,0-0.4,0-0.6-0.1h-0.1
	c-0.4-0.1-0.7-0.3-1-0.6c-0.5-0.5-0.7-1-0.7-1.8s0.2-1.3,0.7-1.8c0.5-0.5,1-0.7,1.7-0.7c0.7,0,1.2,0.2,1.7,0.7
	c0.5,0.5,0.7,1.1,0.7,1.8s-0.2,1.3-0.7,1.8C77.6,12.9,77.3,13.1,76.8,13.2L76.8,13.2z M78.1,8.8c-0.5-0.5-1.1-0.8-1.8-0.8
	c-0.7,0-1.3,0.3-1.8,0.8s-0.7,1.2-0.7,1.9c0,0.5,0.1,0.9,0.3,1.2c0.1,0.3,0.3,0.5,0.5,0.7c0.2,0.2,0.4,0.4,0.7,0.5
	c0.3,0.2,0.7,0.2,1.1,0.2c0.4,0,0.8-0.1,1.1-0.3h0.1c0.2-0.1,0.4-0.3,0.6-0.5c0.5-0.5,0.8-1.2,0.8-1.9S78.6,9.3,78.1,8.8z
	 M76.8,13.2c-0.2,0-0.3,0-0.5,0c-0.2,0-0.4,0-0.6-0.1h-0.1c-0.4-0.1-0.7-0.3-1-0.6c-0.5-0.5-0.7-1-0.7-1.8s0.2-1.3,0.7-1.8
	c0.5-0.5,1-0.7,1.7-0.7c0.7,0,1.2,0.2,1.7,0.7c0.5,0.5,0.7,1.1,0.7,1.8s-0.2,1.3-0.7,1.8C77.6,12.9,77.3,13.1,76.8,13.2L76.8,13.2z
	 M78.1,8.8c-0.5-0.5-1.1-0.8-1.8-0.8c-0.7,0-1.3,0.3-1.8,0.8s-0.7,1.2-0.7,1.9c0,0.5,0.1,0.9,0.3,1.2c0.1,0.3,0.3,0.5,0.5,0.7
	c0.2,0.2,0.4,0.4,0.7,0.5c0.3,0.2,0.7,0.2,1.1,0.2c0.4,0,0.8-0.1,1.1-0.3h0.1c0.2-0.1,0.4-0.3,0.6-0.5c0.5-0.5,0.8-1.2,0.8-1.9
	S78.6,9.3,78.1,8.8z M76.8,13.2c-0.2,0-0.3,0-0.5,0c-0.2,0-0.4,0-0.6-0.1h-0.1c-0.4-0.1-0.7-0.3-1-0.6c-0.5-0.5-0.7-1-0.7-1.8
	s0.2-1.3,0.7-1.8c0.5-0.5,1-0.7,1.7-0.7c0.7,0,1.2,0.2,1.7,0.7c0.5,0.5,0.7,1.1,0.7,1.8s-0.2,1.3-0.7,1.8
	C77.6,12.9,77.3,13.1,76.8,13.2L76.8,13.2z M78.1,8.8c-0.5-0.5-1.1-0.8-1.8-0.8c-0.7,0-1.3,0.3-1.8,0.8s-0.7,1.2-0.7,1.9
	c0,0.5,0.1,0.9,0.3,1.2c0.1,0.3,0.3,0.5,0.5,0.7c0.2,0.2,0.4,0.4,0.7,0.5c0.3,0.2,0.7,0.2,1.1,0.2c0.4,0,0.8-0.1,1.1-0.3h0.1
	c0.2-0.1,0.4-0.3,0.6-0.5c0.5-0.5,0.8-1.2,0.8-1.9S78.6,9.3,78.1,8.8z M76.8,13.2c-0.2,0-0.3,0-0.5,0c-0.2,0-0.4,0-0.6-0.1h-0.1
	c-0.4-0.1-0.7-0.3-1-0.6c-0.5-0.5-0.7-1-0.7-1.8s0.2-1.3,0.7-1.8c0.5-0.5,1-0.7,1.7-0.7c0.7,0,1.2,0.2,1.7,0.7
	c0.5,0.5,0.7,1.1,0.7,1.8s-0.2,1.3-0.7,1.8C77.6,12.9,77.3,13.1,76.8,13.2L76.8,13.2z M78.1,8.8c-0.5-0.5-1.1-0.8-1.8-0.8
	c-0.7,0-1.3,0.3-1.8,0.8s-0.7,1.2-0.7,1.9c0,0.5,0.1,0.9,0.3,1.2c0.1,0.3,0.3,0.5,0.5,0.7c0.2,0.2,0.4,0.4,0.7,0.5
	c0.3,0.2,0.7,0.2,1.1,0.2c0.4,0,0.8-0.1,1.1-0.3h0.1c0.2-0.1,0.4-0.3,0.6-0.5c0.5-0.5,0.8-1.2,0.8-1.9S78.6,9.3,78.1,8.8z
	 M76.8,13.2c-0.2,0-0.3,0-0.5,0c-0.2,0-0.4,0-0.6-0.1h-0.1c-0.4-0.1-0.7-0.3-1-0.6c-0.5-0.5-0.7-1-0.7-1.8s0.2-1.3,0.7-1.8
	c0.5-0.5,1-0.7,1.7-0.7c0.7,0,1.2,0.2,1.7,0.7c0.5,0.5,0.7,1.1,0.7,1.8s-0.2,1.3-0.7,1.8C77.6,12.9,77.3,13.1,76.8,13.2L76.8,13.2z
	 M78.1,8.8c-0.5-0.5-1.1-0.8-1.8-0.8c-0.7,0-1.3,0.3-1.8,0.8s-0.7,1.2-0.7,1.9c0,0.5,0.1,0.9,0.3,1.2c0.1,0.3,0.3,0.5,0.5,0.7
	c0.2,0.2,0.4,0.4,0.7,0.5c0.3,0.2,0.7,0.2,1.1,0.2c0.4,0,0.8-0.1,1.1-0.3h0.1c0.2-0.1,0.4-0.3,0.6-0.5c0.5-0.5,0.8-1.2,0.8-1.9
	S78.6,9.3,78.1,8.8z M76.8,13.2c-0.2,0-0.3,0-0.5,0c-0.2,0-0.4,0-0.6-0.1h-0.1c-0.4-0.1-0.7-0.3-1-0.6c-0.5-0.5-0.7-1-0.7-1.8
	s0.2-1.3,0.7-1.8c0.5-0.5,1-0.7,1.7-0.7c0.7,0,1.2,0.2,1.7,0.7c0.5,0.5,0.7,1.1,0.7,1.8s-0.2,1.3-0.7,1.8
	C77.6,12.9,77.3,13.1,76.8,13.2L76.8,13.2z"/>
<path class="st0" d="M77.2,27c-0.2-1.1-0.9-2.1-1.8-2.7c-0.8-0.5-1.7-0.9-2.7-0.9c-0.8,0-1.5,0.2-2.2,0.5c-0.9,0.5-1.7,1.3-2.1,2.3
	v0c-0.2,0.5-0.3,1.1-0.3,1.7c0,0.7,0.1,1.3,0.4,1.8c0,0,0,0,0,0c0.7,1.6,2.3,2.7,4.2,2.7c1.1,0,2.1-0.4,2.9-1c0,0,0,0,0,0
	c0.5-0.5,1-1,1.2-1.7c0.2-0.6,0.4-1.2,0.4-1.9C77.3,27.6,77.3,27.3,77.2,27z M74.5,30.1c-0.5,0.4-1.1,0.7-1.7,0.7
	c-1.4,0-2.6-1.1-2.6-2.8c0-1.2,0.6-2.1,1.4-2.5c0.1,0,0.2-0.1,0.2-0.1c0.3-0.1,0.6-0.2,0.9-0.2c1.4,0,2.6,1.1,2.6,2.8
	c0,0.7-0.2,1.3-0.6,1.8C74.7,29.9,74.6,30,74.5,30.1z M63.5,24.8c0-0.4,0-0.9,0-1.3c-0.2,0-0.4,0-0.7,0c-1.2,0-2.3,0.4-3.1,1.2
	c0.4,0,0.9,0,1.3,0c0.4,0,0.6,0,0.8,0c0,0,0.1,0,0.1,0.1c0,0,0,0,0.1,0c0,0,0,0,0.1,0.1c0,0,0,0,0,0c0,0,0,0,0,0.1c0,0,0,0.1,0,0.1
	c0,0,0,0.1,0,0.1c0,0.1,0,0.1,0,0.2c0.2,0,0.4-0.1,0.5-0.1c0.2,0,0.5,0,0.7,0.1C63.5,25.1,63.5,25,63.5,24.8z M66,24.7
	c-0.7-0.7-1.6-1.1-2.6-1.3c-0.2,0-0.4,0-0.7,0c-1.2,0-2.3,0.4-3.1,1.2c-0.8,0.7-1.3,1.7-1.5,2.8c0,0.2,0,0.4,0,0.6
	c0,0.8,0.2,1.6,0.6,2.3c0.1,0.1,0.1,0.2,0.2,0.3c0.8,1.2,2.2,2,3.8,2c1,0,1.9-0.3,2.7-0.9c0.6-0.4,1.1-1,1.4-1.8
	c0.3-0.6,0.4-1.2,0.4-2C67.4,26.7,66.9,25.5,66,24.7z M63.4,30.7c-0.2,0-0.4,0.1-0.6,0.1c-0.7,0-1.4-0.3-1.8-0.8
	c-0.2-0.2-0.4-0.5-0.5-0.7c-0.2-0.4-0.2-0.8-0.2-1.2c0-0.4,0.1-0.7,0.2-1c0.2-0.6,0.5-1,1-1.3c0.2-0.2,0.5-0.3,0.8-0.4
	c0.2,0,0.4-0.1,0.5-0.1c0.2,0,0.5,0,0.7,0.1c0.6,0.2,1.1,0.5,1.4,1c0.3,0.4,0.5,1,0.5,1.6C65.4,29.4,64.5,30.4,63.4,30.7z
	 M63.5,24.8c0-0.4,0-0.9,0-1.3c-0.2,0-0.4,0-0.7,0c-1.2,0-2.3,0.4-3.1,1.2c0.4,0,0.9,0,1.3,0c0.4,0,0.6,0,0.8,0c0,0,0.1,0,0.1,0.1
	c0,0,0,0,0.1,0c0,0,0,0,0.1,0.1c0,0,0,0,0,0c0,0,0,0,0,0.1c0,0,0,0.1,0,0.1c0,0,0,0.1,0,0.1c0,0.1,0,0.1,0,0.2
	c0.2,0,0.4-0.1,0.5-0.1c0.2,0,0.5,0,0.7,0.1C63.5,25.1,63.5,25,63.5,24.8z M63.5,24.8c0-0.4,0-0.9,0-1.3c-0.2,0-0.4,0-0.7,0
	c-1.2,0-2.3,0.4-3.1,1.2c0.4,0,0.9,0,1.3,0c0.4,0,0.6,0,0.8,0c0,0,0.1,0,0.1,0.1c0,0,0,0,0.1,0c0,0,0,0,0.1,0.1c0,0,0,0,0,0
	c0,0,0,0,0,0.1c0,0,0,0.1,0,0.1c0,0,0,0.1,0,0.1c0,0.1,0,0.1,0,0.2c0.2,0,0.4-0.1,0.5-0.1c0.2,0,0.5,0,0.7,0.1
	C63.5,25.1,63.5,25,63.5,24.8z M57.5,24.9c0,0,0-0.1,0-0.1H51v1.9h4.6c0,0.4-0.1,0.7-0.2,1.1v0c-0.1,0.4-0.3,0.7-0.5,1
	c-0.1,0.1-0.2,0.2-0.3,0.3c-0.7,0.7-1.7,1.4-3.6,1.4c-0.9,0-1.8-0.2-2.5-0.7c-0.4-0.2-0.8-0.5-1.1-0.9c-0.9-0.9-1.4-2.2-1.4-3.6
	c0-1.5,0.6-2.8,1.5-3.7c0.6-0.6,1.3-1,2.1-1.3c0.5-0.1,0.9-0.2,1.4-0.2c0.1,0,0.2,0,0.3,0c0.5,0,0.9,0.1,1.3,0.2
	c0.8,0.2,1.4,0.7,1.9,1.1l1.4-1.4c-0.7-0.7-1.6-1.3-2.7-1.6c-0.6-0.2-1.2-0.3-1.9-0.3c-0.1,0-0.2,0-0.3,0c-0.2,0-0.4,0-0.6,0
	c-1.1,0.1-2.1,0.4-3,0.9c-1.6,0.9-2.8,2.4-3.3,4.2v0c-0.2,0.6-0.3,1.3-0.3,1.9c0,3.9,3.3,7.1,7.2,7.1c0.7,0,1.4-0.1,1.9-0.2
	c0.2,0,0.4-0.1,0.7-0.2h0l0,0c0.9-0.3,1.6-0.8,2.3-1.5c0.2-0.2,0.5-0.5,0.6-0.8c0.6-0.8,0.8-1.8,1-2.7c0-0.4,0.1-0.7,0.1-1.1
	C57.6,25.6,57.5,25.2,57.5,24.9z M99.5,26.8L99.5,26.8L99.5,26.8l-0.2-0.5c-0.4-1-1.5-2.8-3.7-2.9c-0.1,0-0.1,0-0.2,0
	c-0.8,0-1.6,0.2-2.2,0.6c-0.6,0.4-1.1,0.9-1.4,1.5c-0.4,0.7-0.6,1.5-0.6,2.4c0,0.5,0.1,1,0.2,1.4c0.6,1.9,2.2,3.2,4.3,3.2
	c2.1,0,3.3-1.3,3.8-2l-0.6-0.4l-0.4-0.3h0L98,29.5c-0.1,0.1-0.2,0.2-0.3,0.4c-0.5,0.6-1.1,0.9-2,0.9c-1,0-1.7-0.5-2.2-1.4l2.2-0.9
	L99.5,26.8z M93.2,27.8c0-1.8,1.4-2.7,2.4-2.7c0,0,0.1,0,0.1,0c0.7,0,1.4,0.4,1.6,1l-1.6,0.6L93.2,27.8z M88.2,18.8v13.5h2V18.8
	H88.2z M85,23.7v0.8h-0.1c-0.3-0.3-0.7-0.7-1.3-0.9c-0.3-0.1-0.7-0.2-1.1-0.2h-0.1c-1,0-2,0.4-2.7,1.1c-0.6,0.5-1.1,1.3-1.3,2.1
	c-0.1,0.4-0.2,0.9-0.2,1.4c0,0.2,0,0.3,0,0.4c0,0.5,0.2,1,0.4,1.4c0.3,0.7,0.7,1.3,1.3,1.7c0.8,0.6,1.7,1,2.7,1c0.2,0,0.4,0,0.6,0
	c0.8-0.1,1.4-0.5,1.8-0.9c0,0,0-0.1,0.1-0.1H85v0.6c0,0.7-0.1,1.2-0.4,1.7v0c-0.4,0.7-1.1,1-2,1c-1.2,0-2-0.9-2.3-1.6L78.5,34
	c0.5,1.2,1.8,2.7,4,2.7c1.5,0,2.8-0.5,3.6-1.8c0.5-0.7,0.8-1.7,0.8-3v-8.2H85z M82.7,30.8L82.7,30.8c-0.8,0-1.5-0.4-2-1
	c-0.4-0.5-0.6-1.1-0.6-1.8c0-1.5,1-2.7,2.3-2.8c0.1,0,0.1,0,0.2,0c0.3,0,0.6,0.1,0.9,0.2c0.9,0.4,1.5,1.4,1.5,2.6
	C85.1,29.6,84.1,30.7,82.7,30.8z M110,19c0,0.7,0,1.3,0,2c0.7,0.4,1.1,1.2,1.1,1.9c0-1.1,0.1-2.1,0.4-3.2
	C111,19.4,110.5,19.2,110,19z M110,19c0,0.7,0,1.3,0,2c0.7,0.4,1.1,1.2,1.1,1.9c0-1.1,0.1-2.1,0.4-3.2C111,19.4,110.5,19.2,110,19z
	 M110,19c0,0.7,0,1.3,0,2c0.7,0.4,1.1,1.2,1.1,1.9c0-1.1,0.1-2.1,0.4-3.2C111,19.4,110.5,19.2,110,19z M111.5,19.8
	c-0.4-0.3-1-0.6-1.5-0.8c-0.4-0.1-0.8-0.2-1.3-0.2H104v13.5h2v-5.1h2.8c0.4,0,0.9-0.1,1.2-0.2c0.7-0.2,1.2-0.5,1.8-0.9
	c0.1-0.1,0.2-0.2,0.4-0.3c0.4-0.4,0.7-1,0.8-1.6c0.1-0.4,0.2-0.8,0.2-1.2C113.1,21.6,112.5,20.5,111.5,19.8z M105.9,25.3v-4.6h2.8
	c0.3,0,0.7,0.1,0.9,0.2h0c0.1,0,0.2,0.1,0.3,0.1c0.7,0.4,1.1,1.2,1.1,1.9c0,0,0,0,0,0.1c0,0.4-0.1,0.8-0.3,1.1
	c-0.2,0.3-0.5,0.6-0.8,0.8c-0.3,0.2-0.7,0.3-1.2,0.3H105.9z M110,19c0,0.7,0,1.3,0,2c0.7,0.4,1.1,1.2,1.1,1.9c0-1.1,0.1-2.1,0.4-3.2
	C111,19.4,110.5,19.2,110,19z M110,19c0,0.7,0,1.3,0,2c0.7,0.4,1.1,1.2,1.1,1.9c0-1.1,0.1-2.1,0.4-3.2C111,19.4,110.5,19.2,110,19z
	 M110,19c0,0.7,0,1.3,0,2c0.7,0.4,1.1,1.2,1.1,1.9c0-1.1,0.1-2.1,0.4-3.2C111,19.4,110.5,19.2,110,19z M110,19c0,0.7,0,1.3,0,2
	c0.7,0.4,1.1,1.2,1.1,1.9c0-1.1,0.1-2.1,0.4-3.2C111,19.4,110.5,19.2,110,19z M110,19c0,0.7,0,1.3,0,2c0.7,0.4,1.1,1.2,1.1,1.9
	c0-1.1,0.1-2.1,0.4-3.2C111,19.4,110.5,19.2,110,19z M110,19c0,0.7,0,1.3,0,2c0.7,0.4,1.1,1.2,1.1,1.9c0-1.1,0.1-2.1,0.4-3.2
	C111,19.4,110.5,19.2,110,19z M125.1,26.2L125.1,26.2c-0.2-1.2-1.1-2.1-2.2-2.5c-0.5-0.2-1.2-0.3-1.8-0.3c-0.6,0-1.1,0.1-1.7,0.3
	c-0.8,0.3-1.5,0.9-1.9,1.8l1.8,0.7c0.4-0.7,1.1-1,1.8-1c1,0,2.1,0.6,2.1,1.7v0.1c-0.4-0.2-1.1-0.5-2.1-0.5c-1.1,0-2.2,0.4-3,1.1
	c-0.5,0.5-0.9,1.1-0.9,2c0,1.1,0.6,1.9,1.4,2.4c0.6,0.4,1.2,0.6,2,0.6c0.8,0,1.4-0.2,1.9-0.6c0.3-0.2,0.5-0.5,0.7-0.7h0.1v1h1.9
	v-5.2C125.1,26.8,125.1,26.5,125.1,26.2z M120.8,30.8c-0.7,0-1.6-0.3-1.6-1.1c0-0.8,0.6-1.2,1.4-1.3c0.2-0.1,0.5-0.1,0.8-0.1
	c0.1,0,0.2,0,0.3,0c0.7,0,1.1,0.2,1.5,0.4C123.1,29.9,122,30.8,120.8,30.8z M132.2,23.7l-0.5,1.3l-1.5,3.7l-0.1,0.3v0l-0.1,0.2v0h0
	l-0.1,0.3h-0.1l0-0.1l-0.3-0.7l-0.7-1.8l-0.5-1.2l-0.9-2.1l0,0h-2.1l0,0l1,2.3l1.3,3.1c0,0,0,0,0,0l1.2,2.7l-2,4.5h2.1l2.5-5.7
	l0.3-0.8l1.6-3.7l1.1-2.5H132.2z M122.9,23.7c-1.2,0-2.3,0-3.5,0c-0.8,0.3-1.5,0.9-1.9,1.8l1.8,0.7c0.4-0.7,1.1-1,1.8-1
	c1,0,2.1,0.6,2.1,1.7v0.1c-0.4-0.2-1.1-0.5-2.1-0.5c-1.1,0-2.2,0.4-3,1.1c0.3,0.2,0.7,0.4,1.1,0.5c0.5,0.1,1,0.2,1.4,0.2
	c0.2-0.1,0.5-0.1,0.8-0.1c0.1,0,0.2,0,0.3,0c1-0.2,1.8-0.7,2.6-1.5c0.1-0.1,0.4-0.3,0.8-0.4v0C124.8,25,124,24.1,122.9,23.7z
	 M114.2,18.8v13.5h2V18.8H114.2z M81.6,8.6h-0.2l0,1.4v3.6c0,0,0.1,0,0.1,0.1V10l0-1.1V8.7h0l0.1,0.1l0.9,1.4V10L81.6,8.6z
	 M81.6,8.6h-0.2l0,1.4v3.6c0,0,0.1,0,0.1,0.1V10l0-1.1V8.7h0l0.1,0.1l0.9,1.4V10L81.6,8.6z M81.6,8.6h-0.2l0,1.4v3.6
	c0,0,0.1,0,0.1,0.1V10l0-1.1V8.7h0l0.1,0.1l0.9,1.4V10L81.6,8.6z M81.6,8.6h-0.2l0,1.4v3.6c0,0,0.1,0,0.1,0.1V10l0-1.1V8.7h0
	l0.1,0.1l0.9,1.4V10L81.6,8.6z M84.7,7.4v3.9l0,0.3l0,0.6l-0.4-0.6l-1.9-3l-0.7-1.1h-1.2v6.7h1V10l0-0.9l0.9,1.4l0.7,1.2l1.5,2.5h1
	V7.4H84.7z M85.5,13.9h-0.7l-1.4-2.3l-1-1.6v0l-0.9-1.4h-0.2l0,1.4v3.9h-0.6V7.6h0.8L82.5,9v0l1.6,2.6l0.7,1.1H85l0-1.1l0-0.3V7.6
	h0.6V13.9z M81.6,8.6h-0.2l0,1.4v3.6c0,0,0.1,0,0.1,0.1V10l0-1.1V8.7h0l0.1,0.1l0.9,1.4V10L81.6,8.6z M81.6,8.6h-0.2l0,1.4v3.6
	c0,0,0.1,0,0.1,0.1V10l0-1.1V8.7h0l0.1,0.1l0.9,1.4V10L81.6,8.6z M81.6,8.6h-0.2l0,1.4v3.6c0,0,0.1,0,0.1,0.1V10l0-1.1V8.7h0
	l0.1,0.1l0.9,1.4V10L81.6,8.6z M81.6,8.6h-0.2l0,1.4v3.6c0,0,0.1,0,0.1,0.1V10l0-1.1V8.7h0l0.1,0.1l0.9,1.4V10L81.6,8.6z"/>
<path class="st1" d="M13.4,11.3c-0.3,0.2-0.4,0.7-0.4,1.2v-0.1v18.3v-0.1c0,0.5,0.1,0.9,0.4,1.2l0.1,0.1v0c0.2,0.2,0.4,0.3,0.7,0.3
	c0.3,0,0.6-0.1,0.9-0.3L27,24.9l4.1-2.3c0.5-0.3,0.8-0.7,0.9-1.1v0c0-0.4-0.3-0.8-0.9-1.1L27,18.1l-11.9-6.8
	c-0.3-0.2-0.6-0.3-0.9-0.3C13.9,11,13.6,11.1,13.4,11.3L13.4,11.3z"/>
<linearGradient id="SVGID_1_" gradientUnits="userSpaceOnUse" x1="21.287" y1="31.709" x2="12.2873" y2="23.4672" gradientTransform="matrix(1 0 0 -1 0 46)">
	<stop  offset="0" style="stop-color:#00A0FF"/>
	<stop  offset="6.570000e-03" style="stop-color:#00A1FF"/>
	<stop  offset="0.2601" style="stop-color:#00BEFF"/>
	<stop  offset="0.5122" style="stop-color:#00D2FF"/>
	<stop  offset="0.7604" style="stop-color:#00DFFF"/>
	<stop  offset="1" style="stop-color:#00E3FF"/>
</linearGradient>
<path class="st2" d="M13.4,32L13.4,32c-0.3-0.3-0.4-0.7-0.4-1.3v0.1V12.1v0.1c0-0.6,0.2-1,0.4-1.3L23,21.5L13.4,32z"/>
<linearGradient id="SVGID_00000007396806854986896420000002150943091675827902_" gradientUnits="userSpaceOnUse" x1="32.6831" y1="24.5" x2="11.2582" y2="24.5" gradientTransform="matrix(1 0 0 -1 0 46)">
	<stop  offset="0" style="stop-color:#FFE000"/>
	<stop  offset="0.4087" style="stop-color:#FFBD00"/>
	<stop  offset="0.7754" style="stop-color:#FFA500"/>
	<stop  offset="1" style="stop-color:#FF9C00"/>
</linearGradient>
<path style="fill:url(#SVGID_00000007396806854986896420000002150943091675827902_);" d="M26.7,25L23,21.5l3.7-3.5l4.4,2.4
	c0.6,0.3,0.9,0.7,0.9,1.1v0c-0.1,0.4-0.4,0.8-0.9,1.1L26.7,25L26.7,25z"/>
<linearGradient id="SVGID_00000049927481163574053770000012740856994148273086_" gradientUnits="userSpaceOnUse" x1="24.0891" y1="21.8914" x2="9.9161" y2="6.6823" gradientTransform="matrix(1 0 0 -1 0 46)">
	<stop  offset="0" style="stop-color:#FF3A44"/>
	<stop  offset="1" style="stop-color:#C31162"/>
</linearGradient>
<path style="fill:url(#SVGID_00000049927481163574053770000012740856994148273086_);" d="M13.7,32c-0.3,0-0.5-0.1-0.7-0.3v0L23.5,22
	l3.5,3.2l-12.3,6.5C14.4,31.9,14,32,13.7,32z"/>
<linearGradient id="SVGID_00000169543264730755947050000005601022105724627368_" gradientUnits="userSpaceOnUse" x1="12.3387" y1="38.4012" x2="19.3022" y2="31.5978" gradientTransform="matrix(1 0 0 -1 0 46)">
	<stop  offset="0" style="stop-color:#32A071"/>
	<stop  offset="6.850000e-02" style="stop-color:#2DA771"/>
	<stop  offset="0.4762" style="stop-color:#15CF74"/>
	<stop  offset="0.8009" style="stop-color:#06E775"/>
	<stop  offset="1" style="stop-color:#00F076"/>
</linearGradient>
<path style="fill:url(#SVGID_00000169543264730755947050000005601022105724627368_);" d="M23.5,22L13,11.3c0.2-0.2,0.5-0.3,0.7-0.3
	c0.3,0,0.6,0.1,1,0.3L27,18.4L23.5,22L23.5,22z"/>
<linearGradient id="SVGID_00000043459475634534473920000006640061349531638159_" gradientUnits="userSpaceOnUse" x1="23.0353" y1="20.808" x2="11.4481" y2="8.6453" gradientTransform="matrix(1 0 0 -1 0 46)">
	<stop  offset="0" style="stop-color:#CC2E36"/>
	<stop  offset="1" style="stop-color:#9C0E4E"/>
</linearGradient>
<path style="fill:url(#SVGID_00000043459475634534473920000006640061349531638159_);" d="M13.8,32c-0.3,0-0.5-0.1-0.7-0.3l0,0
	c0,0,0,0,0,0L13,31.7c0,0,0,0,0,0l0.1-0.1c0.2,0.2,0.5,0.3,0.7,0.3c0.3,0,0.6-0.1,0.9-0.3L26.9,25l0.1,0.1l-0.1,0l-12.2,6.6
	C14.4,31.9,14.1,32,13.8,32C13.9,32,13.8,32,13.8,32L13.8,32z"/>
<linearGradient id="SVGID_00000020382699437568190550000012435982576594335880_" gradientUnits="userSpaceOnUse" x1="32.6393" y1="22.5" x2="12.5887" y2="22.5" gradientTransform="matrix(1 0 0 -1 0 46)">
	<stop  offset="0" style="stop-color:#E0C500"/>
	<stop  offset="0.4087" style="stop-color:#E0A600"/>
	<stop  offset="0.7754" style="stop-color:#E09100"/>
	<stop  offset="1" style="stop-color:#E08900"/>
</linearGradient>
<path style="fill:url(#SVGID_00000020382699437568190550000012435982576594335880_);" d="M27.1,25L27.1,25l4.1-2.1
	c0.5-0.3,0.8-0.6,0.9-0.9c0,0.1,0,0.2-0.1,0.4c-0.1,0.2-0.4,0.5-0.8,0.7L27.1,25L27.1,25z"/>
<linearGradient id="SVGID_00000173118967876307815320000008209221431857200257_" gradientUnits="userSpaceOnUse" x1="26.8562" y1="66.7488" x2="117.3138" y2="-23.7088">
	<stop  offset="2.770450e-07" style="stop-color:#FCCB35"/>
	<stop  offset="1" style="stop-color:#F89D32"/>
</linearGradient>
<path style="fill:url(#SVGID_00000173118967876307815320000008209221431857200257_);" d="M144.2,5.4v32.3c0,3-2.4,5.4-5.3,5.4H5.3
	C2.4,43,0,40.6,0,37.7V5.4C0,2.4,2.4,0,5.3,0h133.5C141.8,0,144.2,2.4,144.2,5.4z"/>
<linearGradient id="SVGID_00000124145084414713874690000015653202761688334504_" gradientUnits="userSpaceOnUse" x1="32.6393" y1="26" x2="12.5901" y2="26" gradientTransform="matrix(1 0 0 -1 0 46)">
	<stop  offset="0" style="stop-color:#FFE840"/>
	<stop  offset="0.4087" style="stop-color:#FFCE40"/>
	<stop  offset="0.7754" style="stop-color:#FFBC40"/>
	<stop  offset="1" style="stop-color:#FFB540"/>
</linearGradient>
<path style="fill:url(#SVGID_00000124145084414713874690000015653202761688334504_);" d="M32,22c0-0.4-0.3-0.9-0.9-1.2L27,18.1
	l0.1-0.1h0l4.1,2.6C31.7,21,32,21.5,32,22L32,22z"/>
<linearGradient id="SVGID_00000040546997890804094700000009210701444799593863_" gradientUnits="userSpaceOnUse" x1="14.1105" y1="37.5605" x2="19.2844" y2="32.1293" gradientTransform="matrix(1 0 0 -1 0 46)">
	<stop  offset="0" style="stop-color:#65B895"/>
	<stop  offset="6.850000e-02" style="stop-color:#62BD95"/>
	<stop  offset="0.4762" style="stop-color:#50DB97"/>
	<stop  offset="0.8009" style="stop-color:#44ED98"/>
	<stop  offset="1" style="stop-color:#40F498"/>
</linearGradient>
<path style="fill:url(#SVGID_00000040546997890804094700000009210701444799593863_);" d="M26.9,18l-12.2-6.6
	c-0.3-0.2-0.7-0.3-0.9-0.3c-0.3,0-0.5,0.1-0.7,0.3L13,11.3c0,0,0,0,0.1-0.1c0,0,0,0,0,0c0.2-0.2,0.4-0.3,0.7-0.3h0
	c0.3,0,0.6,0.1,0.9,0.3L26.9,18L26.9,18L26.9,18L26.9,18z"/>
<g>
	<g>
		<path class="st11" d="M34.6,19.7L34.6,19.7C34.5,19.7,34.6,19.7,34.6,19.7C34.6,19.7,34.6,19.8,34.6,19.7
			C34.6,19.7,34.6,19.7,34.6,19.7z"/>
		<path class="st12" d="M47.8,30.4c0.2,0,0.4,0,0.7-0.1c-0.3,0-0.7,0.1-1,0.1C47.5,30.4,47.6,30.4,47.8,30.4z"/>
		<path class="st13" d="M58.1,25.3c0,0.3,0,0.6,0,0.9c0-0.5,0-1,0-1.5h0C58.1,24.9,58.1,25.1,58.1,25.3z"/>
		<path class="st13" d="M61.4,20.1c0.1,0,0.2,0,0.3,0C61.6,20.1,61.5,20.1,61.4,20.1L61.4,20.1z"/>
		<path class="st14" d="M37.8,19.3C37.8,19.3,37.9,19.3,37.8,19.3C37.9,19.3,37.9,19.3,37.8,19.3C37.9,19.3,37.9,19.3,37.8,19.3z"/>
		<path class="st15" d="M45.8,26.3c0,0.1,0,0.3-0.1,0.5c-0.1,0.4-0.3,0.8-0.5,1.2c0,0.1-0.1,0.2-0.2,0.3c-0.1,0.1-0.1,0.2-0.2,0.3
			c-0.1,0.1-0.1,0.2-0.2,0.2c-0.1,0.1-0.1,0.2-0.2,0.2c-0.1,0.1-0.1,0.1-0.2,0.2c-0.4,0.4-0.9,0.7-1.4,0.9c-0.1,0-0.2,0.1-0.2,0.1
			c-0.1,0-0.1,0-0.2,0.1c-0.1,0-0.1,0-0.2,0.1c-0.2,0-0.3,0.1-0.5,0.1c-0.1,0-0.2,0-0.3,0c-0.1,0-0.3,0-0.4,0c-0.3,0-0.7,0-1.1,0.1
			c-0.2,0-0.4-0.1-0.6-0.1c-0.2,0-0.4-0.1-0.5-0.1c-0.1,0-0.2,0-0.2-0.1c-0.1,0-0.2-0.1-0.3-0.1c0,0,0,0,0,0c0,0-0.1,0-0.1-0.1
			c-0.1,0-0.1,0-0.2-0.1C38,30,37.9,30,37.9,30c0,0,0,0,0,0c-0.1,0-0.2-0.1-0.3-0.2c-0.1,0-0.1-0.1-0.2-0.1
			c-0.1-0.1-0.2-0.1-0.3-0.2c0,0,0,0,0,0c-0.1-0.1-0.3-0.2-0.4-0.3c0,0,0,0,0,0c-0.1-0.1-0.2-0.1-0.2-0.2c0,0-0.1-0.1-0.1-0.1
			c-0.1-0.1-0.1-0.1-0.2-0.2c0,0-0.1-0.1-0.1-0.1c-0.1-0.1-0.1-0.2-0.2-0.2c0,0,0,0,0,0c0,0-0.1-0.1-0.1-0.2c0,0,0,0,0,0
			c-0.1-0.1-0.1-0.1-0.1-0.2c0,0,0,0,0,0v0c0,0,0,0,0,0v0c0,0-0.1-0.1-0.1-0.1c0,0,0,0,0,0c0,0,0-0.1,0-0.1c0,0,0,0,0,0
			c-0.1-0.1-0.1-0.2-0.2-0.3c-0.1-0.1-0.1-0.3-0.2-0.4c0,0,0,0,0-0.1c0-0.1-0.1-0.2-0.1-0.3c0-0.1-0.1-0.2-0.1-0.4
			c0-0.1,0-0.1,0-0.2c0-0.2,0-0.3-0.1-0.5v0c0-0.2,0-0.3,0-0.5c0-0.2,0-0.3,0-0.5c0-0.1,0-0.2,0-0.3c0-0.1,0-0.3,0.1-0.4
			c0,0,0-0.1,0-0.1c0-0.1,0-0.2,0.1-0.3c0-0.1,0.1-0.3,0.1-0.4c0.1-0.3,0.2-0.6,0.3-0.8c0.1-0.1,0.1-0.3,0.2-0.4
			c0.2-0.5,0-1.2-0.4-1.5c-0.1-0.1-0.3-0.2-0.4-0.2c0,0,0,0-0.1,0c-0.1,0-0.2,0-0.3,0C34,19.8,34,20.2,34,20.6c0,2.2,0,4.5,0,6.7
			c0,0.8,0,1.6,0,2.4c0,0.5-0.1,0.6-0.6,0.6c-0.8-0.1-1.9,0.3-2.5-0.2c-0.5-0.5-0.1-1.6-0.2-2.4c0-2.2,0-4.4,0-6.6
			c0.2-1.4,0-2.6-1-3.7c-0.1-0.1-0.2-0.2-0.3-0.3c-0.2-0.2-0.3-0.5-0.4-0.7c-0.3-0.7-0.5-1.5-0.5-2.3c0-0.3,0-0.6,0.4-0.7
			c0.4-0.1,0.4,0.3,0.6,0.6c0.3,0.6,0.5,1.1,0.8,1.7c0.5,0.8,1.1,1.4,2.2,1.5c0.9,0.1,1.7,0.4,2.4,0.8c0.1,0,0.2,0.1,0.3,0.2
			c0.1,0.1,0.3,0.2,0.4,0.3c0.1,0.1,0.2,0.2,0.3,0.2c0,0,0.1,0.1,0.1,0.1c0,0,0.1,0.1,0.1,0.1c0.2,0.2,0.3,0.4,0.5,0.6
			c0.2,0.3,0.4,0.3,0.6,0.2c0.1,0,0.1-0.1,0.2-0.1c0,0,0,0,0,0c0.2-0.1,0.3-0.2,0.5-0.3c0,0,0.1,0,0.1,0v0c0,0,0,0,0,0
			c0.1,0,0.2-0.1,0.3-0.1c0.1,0,0.2-0.1,0.3-0.1c0.1,0,0.1,0,0.2-0.1c0.1,0,0.3-0.1,0.4-0.1c0.1,0,0.2,0,0.3-0.1
			c0.2,0,0.4-0.1,0.6-0.1c0.1,0,0.2,0,0.3,0c0.2,0,0.4,0,0.6,0c0.1,0,0.1,0,0.2,0c0.1,0,0.2,0,0.3,0c0.1,0,0.2,0,0.3,0
			c0.3,0,0.6,0.1,0.9,0.2c0.1,0,0.3,0.1,0.4,0.1c0.1,0,0.2,0.1,0.3,0.2c0,0,0,0,0,0c0.2,0.1,0.4,0.2,0.6,0.4
			c0.1,0.1,0.3,0.2,0.4,0.3c0.8,0.6,1.2,1.4,1.4,2.4c0.1,0.3,0,0.6-0.4,0.6c-0.4,0-0.8-0.1-1.1,0c-0.8,0-1.5,0.1-1.9-1
			c-0.5-1.2-2.5-1.2-3.5-0.2c-0.1,0.1-0.1,0.2-0.2,0.2c0,0.1-0.1,0.1-0.1,0.2c0,0.1-0.1,0.1-0.1,0.2c0,0,0,0.1,0,0.1
			c0,0.1-0.1,0.1-0.1,0.2c0,0.1-0.1,0.2-0.1,0.3c0,0.1-0.1,0.3-0.1,0.4c0,0.1,0,0.2-0.1,0.3c0,0.1,0,0.2,0,0.3c0,0.1,0,0.2,0,0.3
			c0,0.5,0,1,0.1,1.5c0.1,0.6,0.4,1.2,0.7,1.6c0.5,0.6,1.1,0.8,1.8,0.8c0.1,0,0.2,0,0.3,0c0.1,0,0.2,0,0.2,0c0,0,0,0,0.1,0
			c0.1,0,0.2,0,0.3-0.1c0.1,0,0.2-0.1,0.3-0.1c0,0,0,0,0,0c0.1-0.1,0.2-0.1,0.3-0.2c0.1-0.1,0.3-0.2,0.4-0.4c0,0,0.1-0.1,0.1-0.2
			c0.1-0.2,0.2-0.3,0.3-0.5c0.1-0.2,0.1-0.3,0.2-0.4c0,0,0.1-0.1,0.1-0.1c0,0,0.1-0.1,0.1-0.1c0,0,0.1,0,0.1,0c0.1,0,0.3-0.1,0.5,0
			c0.5,0,0.9,0,1.4,0c0.3,0,0.6,0,0.7,0.1c0,0,0,0,0,0.1C45.8,26.2,45.8,26.2,45.8,26.3C45.8,26.2,45.8,26.3,45.8,26.3z"/>
		<path class="st15" d="M22.8,22.1H23c0.1,0,0.2,0,0.2,0C23.1,22.1,22.9,22.1,22.8,22.1z M23.7,14.8c-1.1,0-2.2,0-3.3,0
			c-0.9,0-1.9,0-2.8,0c-0.4,0-0.6,0.1-0.6,0.6c0,0.9,0,1.7,0,2.6v0.2c0,0.3,0,0.6,0,0.8c0,0.1,0,0.2,0,0.3c0,1,0,2.1,0,3.1v2
			c0,1.6,0,3.1,0,4.7v0.6c0,0.2,0,0.3,0.1,0.4c0,0,0,0,0,0.1c0,0,0,0.1,0.1,0.1c0.1,0.1,0.2,0.1,0.5,0.1c0.7,0,1.5,0,2.2,0
			c0.5,0,0.7-0.1,0.6-0.6c0-0.4,0-0.9,0-1.3v0c0,0,0,0,0,0v-0.1c0-0.8,0-1.6,0-2.4v-0.4c0,0,0,0,0,0c0-0.5,0.1-0.8,0.7-0.7h0
			c0.2,0,0.3,0,0.5,0h0c0.2,0,0.5,0,0.7,0h0c0.6,0,1.1,0,1.7,0c1.2,0,2.2-0.2,3-0.7c0,0,0,0,0,0c0,0,0.1,0,0.1,0h0
			c1.1-0.7,1.8-1.7,2.2-3.3C29.6,16.6,27.8,14.8,23.7,14.8z M26,20.6c0,0.1,0,0.1-0.1,0.2v0c0,0,0,0,0,0.1c0,0,0,0,0,0
			c0,0.1-0.1,0.1-0.1,0.2c0,0,0,0,0,0c0,0,0,0.1-0.1,0.1c0,0-0.1,0.1-0.1,0.1c-0.1,0.1-0.1,0.1-0.2,0.2c-0.1,0.1-0.1,0.1-0.2,0.2
			c-0.1,0.1-0.2,0.1-0.2,0.1c0,0-0.1,0-0.1,0.1c0,0,0,0,0,0c0,0-0.1,0-0.1,0c-0.2,0.1-0.4,0.1-0.6,0.1c0,0-0.1,0-0.1,0h-0.1
			c0,0,0,0,0,0c-0.1,0-0.2,0-0.3,0c-0.1,0-0.1,0-0.2,0c0,0-0.1,0-0.1,0c-0.2,0-0.3,0-0.5,0c-0.4,0-0.9,0-1.3,0c-0.2,0-0.4,0-0.5,0
			c-0.4,0-0.5-0.2-0.5-0.5c0-0.6,0-1.2,0-1.9h0c0-0.7-0.2-1.7,0.2-2.1c0.4-0.5,1.4-0.2,2.1-0.2H23c0.2,0,0.3,0,0.4,0
			c0.2,0,0.4,0,0.6,0c1.4,0.2,2.1,0.9,2.1,2.1C26.1,20,26.1,20.3,26,20.6z"/>
		<path class="st15" d="M57.6,30.3c-0.4,0-0.7,0-1.1,0c-0.4,0-0.7,0-1.1,0c-0.4,0-0.7,0-1.1,0c-0.1,0-0.1,0-0.2,0c0,0-0.1,0-0.1,0
			c0,0,0,0-0.1,0c0,0-0.1,0-0.1,0c-0.1,0-0.1-0.1-0.1-0.1c0,0-0.1-0.1-0.1-0.1c0-0.1-0.1-0.1-0.1-0.2c-0.1-0.1-0.1-0.3-0.2-0.4
			c-0.7-1.2-1.5-2.3-2.2-3.5c-0.1-0.1-0.2-0.2-0.2-0.3c0,0-0.1,0-0.1-0.1c-0.2-0.1-0.3,0-0.5,0.2c-0.4,0.4-0.7,0.8-0.6,1.4
			c0,0.2,0,0.5,0,0.7c0,0.2,0,0.4,0,0.6c0,0.3,0,0.5,0,0.8c0,0.1,0,0.3,0,0.4c0,0.6-0.2,0.7-0.7,0.7c-0.2,0-0.3,0-0.5,0
			c-0.1,0-0.2,0-0.3,0c-0.1,0-0.2,0-0.3,0c-0.1,0-0.1,0-0.2,0c0,0-0.1,0-0.1,0c-0.3,0-0.6,0-0.7-0.2c-0.1-0.1-0.2-0.3-0.2-0.5
			c0,0,0-0.1,0-0.1c0-0.5,0.1-1.1,0.1-1.6c0-1.3,0-2.6,0-3.9c0-2.8,0.1-5.5,0-8.3c0-0.8,0.2-1.1,0.9-1c0.2,0,0.4,0,0.6,0
			c0.1,0,0.3,0,0.4,0c0.1,0,0.1,0,0.2,0c0.1,0,0.2,0,0.3,0c0,0,0.1,0,0.1,0c0,0,0,0,0,0c0,0,0.1,0,0.1,0c0,0,0.1,0,0.1,0
			c0,0,0,0,0,0c0,0,0,0,0,0c0,0,0.1,0.1,0.1,0.1c0,0.1,0.1,0.1,0.1,0.2c0,0,0,0.1,0,0.1c0,0,0,0,0,0c0,0.1,0,0.2,0,0.4
			c0,0.1,0,0.1,0,0.2c0,0,0,0,0,0.1c0,0,0,0,0,0.1c0,0,0,0.1,0,0.1v6.6c0.3,0,0.4-0.2,0.5-0.3c1.2-1.1,2.2-2.5,3.5-3.5h0.1
			c0.1,0,0.1,0,0.2,0h0c0.2,0,0.5,0,0.7,0h0.2c0,0,0.1,0,0.2,0h0c0.2,0,0.4,0,0.6,0h0.1c0,0,0,0,0.1,0h0c0.4,0,0.8,0,1.2,0h0.1
			c-1,1.1-2.1,2.1-3.1,3.2c-1.1,0.9-1.1,0.9-0.3,2C55,26.3,56.3,28.3,57.6,30.3z"/>
		<path class="st16" d="M75,19.8c0,0.9,0,1.9,0,2.8c0,0.4,0,0.8,0,1.2c0,1.8,0,3.6,0,5.4c0,0.1,0,0.1,0,0.2c0,0.1,0,0.2,0,0.2
			c0,0.1,0,0.1,0,0.2c0,0,0,0,0,0.1c0,0.1-0.1,0.1-0.1,0.2c0,0-0.1,0.1-0.1,0.1c0,0-0.1,0-0.1,0.1c0,0-0.1,0-0.1,0
			c-0.1,0-0.1,0-0.2,0c0,0-0.1,0-0.1,0c0,0-0.1,0-0.1,0c0,0-0.1,0-0.1,0c0,0,0,0,0,0c-0.1,0-0.3,0-0.4,0c-0.1,0-0.1,0-0.2,0
			c-0.1,0-0.1,0-0.2,0c0,0-0.1,0-0.1,0c-0.1,0-0.2,0-0.3,0c0,0-0.1,0-0.1,0c0,0-0.1,0-0.1,0c0,0-0.1,0-0.1,0c0,0-0.1,0-0.1,0
			c0,0-0.1,0-0.1-0.1c-0.1,0-0.1-0.1-0.1-0.2c0,0,0-0.1,0-0.1c0,0,0-0.1-0.1-0.2c0,0,0-0.1,0-0.1c0-0.1,0-0.1,0-0.2
			c0-0.1,0-0.1,0-0.2c0-0.1,0-0.2,0-0.3c0-0.2,0-0.5,0-0.8c0-2.3,0-4.7,0-7v-1c-0.1,0-0.2,0-0.3-0.1c-1,3-2.1,6.1-3.1,9.1
			c0,0,0,0.1-0.1,0.1c0,0,0,0.1,0,0.1c0,0.1-0.1,0.3-0.1,0.4c0,0,0,0.1,0,0.1c0,0,0,0.1-0.1,0.1c-0.1,0.1-0.2,0.2-0.3,0.2
			c-0.8,0.1-1.6,0-2.4,0c-0.2,0-0.3-0.3-0.4-0.5c-1.1-3.2-2.2-6.4-3.2-9.6c0-0.2,0-0.4-0.2-0.4c-0.2,0-0.1,0.2,0,0.3v0
			c0,3.1,0,6.2,0,9.3c0,0.1,0,0.1,0,0.2c0,0,0,0.1,0,0.1c0,0.1,0,0.1,0,0.2c0,0.1,0,0.1-0.1,0.1c-0.1,0.2-0.2,0.3-0.5,0.3
			c0,0-0.1,0-0.1,0c-0.1,0-0.1,0-0.2,0c-0.6,0-1.1,0-1.4,0c-0.1,0-0.1,0-0.2,0c0,0-0.1,0-0.1,0c0,0-0.1,0-0.1,0
			c-0.2-0.1-0.3-0.1-0.4-0.3c0,0,0-0.1,0-0.1c0-0.1-0.1-0.2-0.1-0.3c0-0.1,0-0.1,0-0.2c0-0.1,0-0.3,0-0.5c0-0.1,0-0.2,0-0.3
			c0-0.2,0-0.4,0-0.6c0-0.6,0-1.1,0-1.7c0-0.5,0-1,0-1.5v-5.3c0-0.5,0-1,0-1.5c0-0.2,0-0.4,0-0.7c0,0,0-0.1,0-0.1c0-0.5,0-1,0-1.6
			c0,0,0-0.1,0-0.1c0,0,0-0.1,0-0.1c0,0,0-0.1,0-0.1c0-0.1,0.1-0.2,0.1-0.2c0,0,0.1-0.1,0.2-0.1h0c0,0,0.1,0,0.1,0
			c0.1,0,0.2,0,0.3,0c0.3,0,0.6,0,0.9,0c0.9,0,1.7,0,2.6,0c0.6,0,0.8,0.2,0.9,0.7c0.5,1.5,1,2.9,1.5,4.4c0.5,1.5,1,2.9,1.5,4.4
			c0,0,0,0.1,0,0.1c0,0.1,0.1,0.2,0.1,0.3c0.1,0.1,0.2,0.3,0.3,0.4c1-3.3,2.1-6.6,3.1-9.9c0.1-0.3,0.3-0.4,0.7-0.4
			c1.2,0,2.5,0,3.7,0c0.5,0,0.7,0.2,0.7,0.7C75,16.9,75,18.3,75,19.8z"/>
		<path class="st16" d="M79.6,25.5c0.3,0,0.5,0,0.8,0h0.4c0.7,0,1.4,0,2.1,0c0.5,0,1,0,1.5,0h2.5c0-0.4,0-0.8,0-1.2
			c0-3.4-2.7-5.8-6.1-5.5c-1.6,0.2-2.9,0.9-3.9,2.1c-0.1,0.2-0.3,0.4-0.4,0.7c-0.3,0.5-0.5,1-0.6,1.5c-0.2,0.7-0.3,1.3-0.2,2
			c0,0,0,0,0,0c0,0.6,0.1,1.2,0.4,1.9c0.2,0.4,0.4,0.9,0.6,1.3s0.6,0.8,0.9,1.1c0.4,0.3,0.7,0.6,1.1,0.8c0,0,0,0,0.1,0
			c0.5,0.2,1,0.4,1.5,0.4c0,0,0.1,0,0.1,0c0.6,0.1,1.1,0.1,1.7,0c0.2,0,0.3,0,0.5-0.1c0.2,0,0.3-0.1,0.5-0.1
			c0.4-0.1,0.8-0.2,1.2-0.4c0.6-0.3,1.1-0.7,1.5-1.3c0,0,0,0,0,0c0.3-0.4,0.5-0.8,0.7-1.2c0,0,0,0,0,0c0.1-0.2,0.3-0.4,0-0.6
			c-0.1,0-0.2-0.1-0.3-0.1c-0.2,0-0.4,0-0.6,0c-0.2,0-0.4,0-0.7,0.1c-0.3,0-0.5,0.1-0.7,0.2v0c-0.2,0.1-0.4,0.2-0.5,0.3
			c-0.3,0.3-0.6,0.6-1,0.7c-0.2,0.1-0.4,0.1-0.6,0.2c-0.2,0-0.4,0.1-0.6,0.1c-0.3,0-0.6-0.1-0.9-0.1c-0.1,0-0.2-0.1-0.2-0.1
			c-0.2-0.1-0.3-0.1-0.4-0.2c-0.6-0.3-0.9-0.9-1-1.6C78.8,25.7,78.9,25.4,79.6,25.5z M79,22.7c0-0.1,0.1-0.2,0.1-0.2
			c0-0.1,0.1-0.2,0.1-0.3c0.1-0.2,0.2-0.3,0.4-0.5c0.1-0.1,0.2-0.1,0.2-0.2c0,0,0,0,0,0c0.1-0.1,0.2-0.1,0.2-0.1
			c0.1-0.1,0.3-0.1,0.4-0.2c0.1,0,0.1,0,0.2-0.1c0.1,0,0.1,0,0.2,0c0.1,0,0.2,0,0.2,0c0.1,0,0.2,0,0.2,0h0.1c1.1,0,1.8,0.6,2.1,1.6
			h0c0,0.1,0.1,0.2,0.1,0.2c0.1,0.4,0,0.6-0.5,0.6c-0.7,0-1.3,0-2,0c-0.3,0-0.6,0-0.9,0h-0.1c-0.2,0-0.3,0-0.5,0h-0.3
			c0,0-0.1,0-0.1,0C78.9,23.5,78.8,23.2,79,22.7z"/>
		<path class="st17" d="M61.4,20.1L61.4,20.1c-0.1-0.1-0.1-0.3,0-0.4c0.2,0,0.2,0.2,0.2,0.4C61.6,20.1,61.5,20.1,61.4,20.1z"/>
		<path class="st18" d="M88.5,29.4c0,0.1,0,0.2,0,0.2c-0.2,0-0.3,0-0.4,0.1c0,0-0.1,0-0.1,0.1c-0.1,0.1-0.2,0.1-0.3,0.2
			c-0.3-0.4,0.1-0.9-0.3-1.2c-0.1-0.1-0.2-0.1-0.3-0.2c0,0,0.1,0,0.1,0c0,0,0.1,0,0.1,0c0,0,0.1,0,0.1,0c0,0,0.1,0,0.1,0
			c0,0,0.1,0,0.1,0c0.1,0,0.1,0.1,0.2,0.1c0,0,0,0,0.1,0.1C88.1,29,88.2,29.3,88.5,29.4z"/>
		<path class="st19" d="M87,30c-0.5-0.3,0.2-1.2-0.6-1.3c0,0,0.1-0.1,0.1-0.1c0,0,0.1,0,0.1,0c0.2-0.1,0.4,0,0.5,0
			c0.1,0.1,0.2,0.1,0.3,0.2C86.7,29,87.3,29.6,87,30z"/>
		<path class="st19" d="M88.9,30c-0.3,0.1-0.2-0.3-0.4-0.4c0-0.1,0-0.2,0-0.2c0.1-0.3,0.2-0.6,0.3-1c0.3,0.5,0.2,0.8,0.2,1.2
			C89,29.7,89.1,29.9,88.9,30z"/>
		<path class="st15" d="M34.7,14.7c0,1-0.6,1.7-1.6,1.7c-0.9,0-1.6-0.7-1.6-1.6c0-1,0.6-1.6,1.6-1.6C34,13.2,34.7,13.8,34.7,14.7z"
			/>
		<path class="st12" d="M23.9,22C24,22,24,22,23.9,22C24,22,24,22,23.9,22L23.9,22z"/>
		<path class="st12" d="M23.9,22L23.9,22c-0.8,0.1-1.7,0.1-2.5,0.1c0.6,0,1.2,0,1.8,0c0.1,0,0.2,0,0.3,0C23.7,22,23.8,22,23.9,22
			C23.9,22,23.9,22,23.9,22z"/>
		<path class="st20" d="M79.5,23.5c0.1,0,0.1,0,0.2,0C79.6,23.5,79.6,23.5,79.5,23.5L79.5,23.5C79.4,23.5,79.5,23.5,79.5,23.5z"/>
	</g>
	<g>
		<path class="st0" d="M97.9,30.6V20.2h1.8v10.4H97.9z M97.9,21.9v-1.6h7v1.6H97.9z M97.9,26.7V25h5.6v1.6H97.9z"/>
		<path class="st0" d="M108.3,30.8c-1.1,0-2-0.4-2.6-1.1c-0.6-0.7-0.9-1.7-0.9-3c0-1.3,0.3-2.3,0.9-3c0.6-0.7,1.5-1.1,2.6-1.1
			c1.1,0,2,0.4,2.6,1.1c0.6,0.7,0.9,1.7,0.9,3c0,1.3-0.3,2.3-0.9,3S109.4,30.8,108.3,30.8z M108.3,29.1c0.5,0,0.9-0.2,1.2-0.6
			c0.3-0.4,0.4-1,0.4-1.7c0-0.8-0.1-1.3-0.4-1.7c-0.3-0.4-0.7-0.6-1.2-0.6s-0.9,0.2-1.2,0.6c-0.3,0.4-0.4,1-0.4,1.7
			c0,0.7,0.1,1.3,0.4,1.7C107.4,28.9,107.8,29.1,108.3,29.1z"/>
		<path class="st0" d="M116.5,30.8c-1.1,0-2-0.4-2.6-1.1c-0.6-0.7-0.9-1.7-0.9-3c0-1.3,0.3-2.3,0.9-3c0.6-0.7,1.5-1.1,2.6-1.1
			c1.1,0,2,0.4,2.6,1.1c0.6,0.7,0.9,1.7,0.9,3c0,1.3-0.3,2.3-0.9,3S117.6,30.8,116.5,30.8z M116.5,29.1c0.5,0,0.9-0.2,1.2-0.6
			c0.3-0.4,0.4-1,0.4-1.7c0-0.8-0.1-1.3-0.4-1.7c-0.3-0.4-0.7-0.6-1.2-0.6s-0.9,0.2-1.2,0.6c-0.3,0.4-0.4,1-0.4,1.7
			c0,0.7,0.1,1.3,0.4,1.7C115.6,28.9,116,29.1,116.5,29.1z"/>
		<path class="st0" d="M124.1,30.8c-1,0-1.7-0.3-2.3-1c-0.5-0.7-0.8-1.7-0.8-3c0-1.3,0.3-2.3,0.8-3c0.5-0.7,1.3-1,2.3-1
			c0.6,0,1,0.1,1.3,0.4c0.3,0.3,0.5,0.6,0.6,1.2h0.6l-0.5,2.4c0-0.8-0.1-1.3-0.4-1.7c-0.3-0.4-0.7-0.6-1.2-0.6c-0.6,0-1,0.2-1.3,0.6
			s-0.4,1-0.4,1.8c0,0.8,0.1,1.4,0.4,1.8s0.7,0.6,1.3,0.6c0.6,0,1-0.2,1.3-0.6s0.4-0.9,0.4-1.7l0.5,2.4H126
			c-0.1,0.5-0.3,0.9-0.6,1.2S124.6,30.8,124.1,30.8z M126.4,30.7l-0.2-1.5v-9.5h1.8v11L126.4,30.7z"/>
	</g>
</g>
</svg>
