<?xml version="1.0" encoding="utf-8"?>
<!-- Generator: Adobe Illustrator 26.0.1, SVG Export Plug-In . SVG Version: 6.00 Build 0)  -->
<svg version="1.1" id="Layer_1" xmlns="http://www.w3.org/2000/svg" xmlns:xlink="http://www.w3.org/1999/xlink" x="0px" y="0px"
	 viewBox="0 0 1000 1000" style="enable-background:new 0 0 1000 1000;" xml:space="preserve">
<style type="text/css">
	.st0{fill:#FFFFFF;}
</style>
<g>
	<path class="st0" d="M936.1,506.5c-7.4-4.2-14.6-8.7-21.6-13.5c-3.7-2.6-5.9-2.5-9.2,1c-15.1,15.5-32.9,24.5-55.3,20.9
		c-14.8-2.4-26.2-9.2-30.3-24.9c-1.5-5.9-2.3-11.8-2.7-17.9c-0.3-4.7,0.6-6.4,6-6.3c26.4,0.3,52.9,0.1,79.3,0.2c3.4,0,5.5-1,7.3-3.9
		c6.1-9.5,12.4-18.9,18.8-28.2c1.6-2.4,2.2-4.7,1.7-7.4c-1.2-7.1-2.3-14.1-4.4-21c-8-26.5-23.7-45.2-51.9-51
		c-12.2-2.5-24.4-2.3-36.6-0.4c-25.6,3.9-44.2,17.2-54.3,41.5c-4,9.6-7.4,19.7-7.5,30c-0.1,16-5.2,29.6-15.4,41.8
		c-2.9,3.4-5,7.5-7.5,11.3c-4.6,7-9.9,13.4-16.1,18.9c-14.7,13.2-31.4,20.7-51.7,17.3c-15.1-2.5-26.6-9.5-30.6-25.3
		c-1.5-6-2.2-12.2-2.6-18.4c-0.2-4.3,1.1-5.3,5.3-5.3c26.6,0.2,53.2,0,79.8,0.2c3.4,0,5.5-0.9,7.4-3.8c4.1-6.6,8-13.4,12.9-19.2
		c7.5-8.7,8.5-17.8,5.7-28.7c-5.3-20.6-13.3-39.3-32.3-51.2c-15.1-9.4-31.8-11.1-49-10.1c-36.3,2.1-59.4,20.8-68.3,55.9
		c-6.8,26.9-6.7,54.1-1.3,81.3c3.6,18.2,10.9,34.5,26,46.3c13.1,10.3,28.5,14.2,44.8,14.9c31.5,1.4,59.8-6.3,82.1-30.2
		c5.5-5.9,10-12.6,14.7-18.9c0.6,0.2,0.9,0.2,0.9,0.3c0.6,1.6,1.3,3.1,1.9,4.7c9.2,23.2,26.1,37.4,50.5,42.3
		c11.3,2.3,22.8,2.6,34.4,1.5c28.9-2.8,52.7-14.8,70.2-38.3C939.4,509.9,939.6,508.5,936.1,506.5z M818.3,428.5
		c0.9-6,1.7-11.9,3.7-17.6c3.9-11.2,11.4-18.1,23.5-20c30.3-4.8,41.4,13.1,41.9,38.9c0.1,3.4-2.2,2.8-4.2,2.8c-10.2,0-20.3,0-30.5,0
		c-10.2,0-20.3-0.1-30.5,0.1C818.9,432.8,817.8,431.7,818.3,428.5z M652.9,428.2c0.9-6,1.7-11.9,3.8-17.6
		c4-10.9,11.3-17.9,23.2-19.7c5.5-0.8,10.9-1.1,16.3-0.3c12.8,2,20.1,10.2,23.5,22.2c5.3,19.2,4.8,19.8-14.6,19.8h-17.5
		c-10.2,0-20.3-0.1-30.5,0.1C653.3,432.8,652.3,431.6,652.9,428.2z"/>
	<path class="st0" d="M378.9,494.9c-9.2,37-33.6,56-71.6,56.8c-9.3,0.2-18.5,0-27.6-1.9c-17.8-3.8-30.4-15.2-41.7-28.5
		c-1.6-1.8-0.8-3,0.3-4.4c6.7-9.1,13.6-18.1,20.2-27.3c1.9-2.6,3.1-1.6,4.8,0.1c5,5.2,9.9,10.3,15.1,15.4
		c19.2,18.7,51.5,10.6,58.3-15.2c6.6-25,6.6-50.5,0-75.5c-6-22.5-33.3-32-52.9-19.2c-10.1,6.5-13,17.2-14.9,28.1
		c-1.7,9.9-2.3,19.9-2.1,29.9c0,2.5-0.1,4.7-1.7,6.9c-14,18.5-27.6,37.3-41.8,55.6c-19.5,25.1-46.2,35.2-77.1,36.2
		c-10.4,0.3-20.7-0.6-30.8-3.4c-24.6-6.7-39.9-23.1-46.9-47c-9.1-30.9-9.4-62.2-1.3-93.3c8.9-34.5,31.7-52.6,67.4-55
		c15.6-1,30.9,0.2,45.2,7.5c19,9.7,28.8,26.4,34.7,46c0.8,2.6-0.4,3.7-2.6,4.6c-9.2,3.9-18.4,7.8-27.4,12c-3.2,1.5-3.8,0-4.7-2.4
		c-2.2-6-5-11.8-8.7-17.1c-9.3-13.3-22.6-15-37.2-12.9c-14.1,2-21.2,11-24.6,24c-3.4,13.1-3.1,26.5-3.5,40.6
		c0.1,9.3-0.7,19.2,1.2,29.2c3.3,17.8,13.3,27.4,31.2,30.2c25.6,4,44.6-7.6,60.4-25.9c9.3-10.7,16.4-23.1,24.1-34.9
		c3.3-5.1,1.4-11.4,1.9-17.2c1-11.1,2.4-22.1,5.8-32.8c9.9-31.6,31.4-48.7,64.5-51c11.3-0.8,22.6-0.3,33.7,2.5
		c27.4,6.8,43.2,25.2,50.1,51.5C386,436.2,386.1,465.7,378.9,494.9z"/>
	<path class="st0" d="M624.5,285c-2,9-4.1,18-6,27c-0.7,3.3-2,3.4-5,2.5c-9.8-2.9-19.8-5.3-30.1-4.2c-14.2,1.5-21.8,9.1-23.4,23.2
		c-0.8,6.9-0.6,13.9-1.1,20.9c-0.2,3.3,1,4.1,4.1,4.1c14.2-0.1,28.3,0.1,42.5-0.1c3.9-0.1,4.8,1,3.9,4.7c-2,8.8-3.8,17.7-5.5,26.6
		c-0.6,3.2-1.9,4.2-5.3,4.2c-11.5-0.2-23,0.1-34.5-0.2c-4.3-0.1-5.3,1.3-5.3,5.4c0.1,46.8,0,93.6,0.2,140.4c0,5-1,6.9-6.4,6.6
		c-10.2-0.5-20.4-0.4-30.6,0c-4.7,0.2-6-1.2-6-6c0.2-46.2,0.1-92.5,0.1-138.7c0-8.7,0.9-7.6-7.4-7.7c-19.6,0-39.3,0.2-58.9-0.1
		c-4.9-0.1-5.8,1.5-5.8,6c0.2,46.8,0,93.6,0.2,140.4c0,4.6-1.1,6.2-5.9,6c-10.6-0.4-21.2-0.4-31.7,0c-4.7,0.2-5.5-1.5-5.5-5.7
		c0.2-34.4,0.1-68.7,0.1-103.1c0-32.5,0-64.9,0-97.4c0-8.7,1.1-17.3,3.5-25.7c6.4-22.7,21.5-35.6,44.5-39.5
		c16.1-2.7,31.9-0.6,47.6,3.4c3.3,0.8,3.9,2.3,3.1,5.5c-2.3,9-4.1,18-6.1,27c-0.6,2.8-1.3,4.1-4.8,2.9c-7.9-2.6-16.1-4-24.5-3.8
		c-11,0.2-16.7,4.9-19,15.6c-2.2,10.1-1.1,20.3-1.4,30.5c-0.1,2.5,1.3,2.7,3.2,2.7c21.9,0,43.8-0.1,65.7,0c3.7,0,3.2-2.2,3.2-4.5
		c0-11.7,0.1-23.4,2.7-34.9c6.1-26.6,23.8-41.9,50.8-44.7c17.8-1.9,34.9,1.4,52,5.7C624.8,281,625,282.5,624.5,285z"/>
	<path class="st0" d="M627.5,720.3c-6.8,4.6-13.6,5.9-20.7,6.2c-19.3,0.6-34.3-8-45.3-23.3c-8.9-12.4-16.8-25.5-25.1-38.3
		c-3.2-4.9-5.7-10.2-10.6-13.7c1.7-2.2,3.8-1.3,5.5-1.5c12.2-1.3,18.1-9.1,17.5-23.2c-0.5-11-7.7-17.6-19.2-17.7
		c-7.5,0-7.5,0-7.5,7.5v67.4c0,9.6,0.6,10.5,10.9,13.9h-40.2c9.2-1.7,9.6-8.3,9.5-15.7c-0.2-21.7-0.1-43.4-0.1-65.1
		c0-8.9-1.2-10.7-9.3-13.4c0.3-0.2,0.5-0.7,0.8-0.7c17.5,0,35.1-1.5,52.6,0.7c21.8,2.7,31.4,24.8,18.5,41.6
		c-4.2,5.5-9.9,8.6-17.5,9.4c15.2,12.3,24,29.3,36.4,43.3c10.9,12.3,23.8,20.9,40.8,21.6C625.1,719.4,625.8,719.7,627.5,720.3z"/>
	<path class="st0" d="M698.9,611.2c-11.7-9.1-25.3-11-39.6-10.4c-39,1.6-61.1,42.3-41.1,76.1c10.2,17.2,26.5,23,45.7,22.6
		c2.8,0,5.7,0.2,8.5,0c19.7-1.5,36.1-14.1,41.5-31.6C720.4,646.1,714.4,623.3,698.9,611.2z M688.8,677.8
		c-4.6,10.1-12.9,15.9-24.6,16c-11.9,0.1-19.9-5.9-25.2-16c-0.7-1.3-1.3-2.6-1.8-3.9c-0.2-0.4-0.3-0.7-0.4-1.1
		c-0.6-1.6-1.1-3.2-1.5-4.8c-0.1-0.4-0.2-0.9-0.3-1.3c0,0,0-0.1,0-0.1c-0.1-0.5-0.2-1.1-0.3-1.6c-0.1-0.7-0.3-1.5-0.4-2.2
		c-0.1-0.6-0.2-1.2-0.3-1.8c-0.1-0.6-0.1-1.2-0.2-1.8c-0.3-3-0.3-6-0.2-9.1c-0.1-2.4,0-4.7,0.1-7c0-0.6,0.1-1.1,0.1-1.7
		c0.4-4.3,1.2-8.4,2.7-12.4c0.1-0.3,0.2-0.7,0.4-1c0.2-0.7,0.5-1.4,0.8-2.1c0.1-0.3,0.3-0.7,0.5-1c0.2-0.4,0.4-0.9,0.6-1.3
		c0.2-0.4,0.4-0.9,0.7-1.3c5.3-9.9,13.5-15.6,25-15.4c11.2,0.1,19.6,5.6,24.3,15.6C697.2,640.6,697.2,659.5,688.8,677.8z"/>
	<path class="st0" d="M456.8,670.5c-1.8,8.5-3.7,17-5.5,25.6c-0.4,2.1-1.8,2.1-3.3,2.1c-20.9,0-41.9,0-62.8-0.1
		c-0.3,0-0.6-0.4-1.6-1.1c10.7-1.3,10.1-8.8,10.1-16.2c-0.1-21.7,0-43.4,0-65.1c0-7.9-1.6-9.9-9-13.1c10.6,0,21.3,0.1,31.9,0
		c10.7-0.1,21.5,0.8,32.3-2.3V624c-1.7-1.7-1.4-3.4-1.7-4.9c-1.4-6.4-5.2-10-11.7-10.3c-6.2-0.3-12.5,0-18.7-0.2
		c-2.4,0-3.3,0.8-3.3,3.3c0.1,10.8,0.1,21.5,0,32.3c0,2.6,0.8,3.8,3.6,3.7c4.5-0.1,9.1,0.1,13.6-0.1c6.5-0.4,9.2-3.5,11.9-12.4v31
		c-3.8-11.2-5.3-12.3-18.1-12.3c-10.9,0-10.9,0-10.9,10.9c0,7.7,0.1,15.5,0,23.2c0,2.6,0.8,3.7,3.5,3.6c5.3-0.2,10.6,0.2,15.8-0.2
		c9.1-0.6,15.2-5.9,19.4-13.7C453.3,675.4,454.4,672.7,456.8,670.5z"/>
	<path class="st0" d="M347.8,670.9c-1.5,8.6-2.9,17.3-4.5,25.9c-0.3,1.7-2.1,1.3-3.3,1.3c-21.7,0-43.4,0-65.1,0c-6,0-2.4-3.3-1.5-5
		c9.8-18.5,19.7-36.9,29.6-55.3c4.5-8.5,9-17,13.7-25.4c1.9-3.4,1-4.2-2.5-4.2c-8.1,0.1-16.2-0.1-24.3,0c-9.6,0.1-13,3.2-14.7,12.8
		c-0.1,0.7,0.1,1.5-1.3,1.9v-22.4c23.3,2.7,46.6,1.4,70.5,1c-15.8,29.8-31.6,59.6-47.8,90.4c11-0.3,21,0.8,30.9-0.7
		c7.9-1.2,12.8-6.8,16.2-13.7C344.7,675.5,345.5,673,347.8,670.9z"/>
	<path class="st0" d="M633.7,659c-0.3-3-0.3-6-0.3-9.1c0-2.4,0-4.7,0.2-7c-0.2,2.3-0.2,4.7-0.1,7C633.3,653,633.4,656,633.7,659z"/>
</g>
</svg>
