<?xml version="1.0" encoding="utf-8"?>
<!-- Generator: Adobe Illustrator 26.0.1, SVG Export Plug-In . SVG Version: 6.00 Build 0)  -->
<svg version="1.1" id="Layer_1" xmlns="http://www.w3.org/2000/svg" xmlns:xlink="http://www.w3.org/1999/xlink" x="0px" y="0px"
	 viewBox="0 0 28 32" style="enable-background:new 0 0 28 32;" xml:space="preserve">
<style type="text/css">
	.st0{fill:#FCBC3B;}
</style>
<g>
	<path class="st0" d="M27.3,12c-0.7-1.1-1.7-1.8-2.8-2.2c-0.4-0.1-0.4-0.1-0.4-0.6c0-0.7-0.3-1-1-1h-2c-0.1,0-0.2,0-0.3,0
		c-3.5,0-7,0-10.5,0c-3.1,0-6.1,0-9.2,0C0.2,8.2-0.1,8.5,0,9.4c0,0.5,0.1,0.9,0.1,1.4c0.2,1.8,0.6,3.5,1.2,5.2
		c0.9,2.4,2.4,4.4,4.2,6.1c0.4,0.3,0.7,0.7,0.7,1.3c0,0.2,0,0.4,0,0.6c0,0.3,0.1,0.5,0.3,0.6c0.2,0.1,0.5,0.4,0.7,0.1
		c0,0,0.1,0,0.1,0c0.2,0,0.4,0,0.6,0c0,0,0.1,0,0.1,0H9c0.1,0,0.1,0,0.2,0c0,0,0,0,0.1,0h0l0,0c0,0,0,0,0,0c0.1,0.1,0.3,0,0.4,0h1
		c1.1,0,2.2,0,3.2,0c0.7,0,1.4,0,2.2,0c0.3,0,0.7,0,1,0c0.5,0,0.7-0.3,0.7-0.8c0-0.1,0-0.3,0-0.4c0-0.4,0.1-0.7,0.5-0.9
		c0.4-0.2,0.8-0.5,1.2-0.9c0.4-0.4,0.8-0.4,1.3-0.3c0.2,0,0.3,0.1,0.4,0.1c0.9,0.3,1.8,0.2,2.6-0.2c2.2-1,3.5-2.8,4-5.2
		C28.2,14.6,28,13.3,27.3,12z M25.5,14.7c-0.1,0.8-0.3,1.6-0.7,2.2c0,0.1-0.1,0.1-0.1,0.2c0,0.1-0.1,0.1-0.1,0.2
		c-0.1,0.1-0.2,0.3-0.4,0.4c0,0.1-0.1,0.1-0.1,0.2c-0.2,0.2-0.4,0.3-0.6,0.5c-0.1,0.1-0.2,0.1-0.3,0.2c-0.1,0-0.2,0.1-0.2,0.1
		c0,0-0.1,0-0.1,0c-0.1,0-0.2,0.1-0.2,0.1c0,0-0.1,0-0.1,0c0,0-0.1,0-0.1,0h0c0,0,0,0-0.1,0h0c0,0,0,0,0,0c-0.1,0-0.3,0.1-0.4,0
		c0,0,0,0,0,0c0,0,0,0,0,0c-0.1-0.1,0-0.1,0-0.2l0,0c0,0,0,0,0,0c0,0,0,0,0.1-0.1c0,0,0,0,0-0.1c0-0.1,0.1-0.1,0.1-0.2
		c0.1-0.2,0.2-0.4,0.3-0.6c0.1-0.1,0.1-0.2,0.1-0.3c0.3-0.6,0.5-1.2,0.7-1.9c0,0,0-0.1,0-0.1c0-0.1,0.1-0.3,0.1-0.5
		c0-0.1,0-0.2,0.1-0.2c0.1-0.3,0.2-0.6,0.2-1c0-0.1,0-0.2,0.1-0.3c0-0.1,0-0.2,0.1-0.4c0-0.1,0-0.2,0-0.2c0-0.1,0-0.1,0.1-0.1
		c0.1,0,0.1,0,0.4,0c0.1,0,0.2,0.1,0.3,0.1c0.1,0,0.2,0.1,0.2,0.1c0,0,0,0,0.1,0.1c0.1,0.1,0.2,0.1,0.3,0.2c0,0,0.1,0.1,0.1,0.1
		c0.2,0.3,0.3,0.7,0.4,1.3V14.7z"/>
</g>
</svg>
